<?xml version="1.0" encoding="UTF-8"?>
<!DOCTYPE svg PUBLIC "-//W3C//DTD SVG 1.1//EN" "http://www.w3.org/Graphics/SVG/1.1/DTD/svg11.dtd">
<svg version="1.2" width="118.53mm" height="67.73mm" viewBox="0 0 11853 6773" preserveAspectRatio="xMidYMid" fill-rule="evenodd" stroke-width="28.222" stroke-linejoin="round" xmlns="http://www.w3.org/2000/svg" xmlns:ooo="http://xml.openoffice.org/svg/export" xmlns:xlink="http://www.w3.org/1999/xlink" xmlns:presentation="http://sun.com/xmlns/staroffice/presentation" xmlns:smil="http://www.w3.org/2001/SMIL20/" xmlns:anim="urn:oasis:names:tc:opendocument:xmlns:animation:1.0" xmlns:svg="urn:oasis:names:tc:opendocument:xmlns:svg-compatible:1.0" xml:space="preserve">
 <defs class="ClipPathGroup">
  <clipPath id="presentation_clip_path" clipPathUnits="userSpaceOnUse">
   <rect x="0" y="0" width="11853" height="6773"/>
  </clipPath>
  <clipPath id="presentation_clip_path_shrink" clipPathUnits="userSpaceOnUse">
   <rect x="11" y="6" width="11830" height="6760"/>
  </clipPath>
 </defs>
 <defs class="TextShapeIndex">
  <g ooo:slide="id1" ooo:id-list="id3 id4 id5 id6 id7 id8 id9 id10 id11 id12 id13"/>
 </defs>
 <defs class="EmbeddedBulletChars">
  <g id="bullet-char-template-57356" transform="scale(0.00048828125,-0.00048828125)">
   <path d="M 580,1141 L 1163,571 580,0 -4,571 580,1141 Z"/>
  </g>
  <g id="bullet-char-template-57354" transform="scale(0.00048828125,-0.00048828125)">
   <path d="M 8,1128 L 1137,1128 1137,0 8,0 8,1128 Z"/>
  </g>
  <g id="bullet-char-template-10146" transform="scale(0.00048828125,-0.00048828125)">
   <path d="M 174,0 L 602,739 174,1481 1456,739 174,0 Z M 1358,739 L 309,1346 659,739 1358,739 Z"/>
  </g>
  <g id="bullet-char-template-10132" transform="scale(0.00048828125,-0.00048828125)">
   <path d="M 2015,739 L 1276,0 717,0 1260,543 174,543 174,936 1260,936 717,1481 1274,1481 2015,739 Z"/>
  </g>
  <g id="bullet-char-template-10007" transform="scale(0.00048828125,-0.00048828125)">
   <path d="M 0,-2 C -7,14 -16,27 -25,37 L 356,567 C 262,823 215,952 215,954 215,979 228,992 255,992 264,992 276,990 289,987 310,991 331,999 354,1012 L 381,999 492,748 772,1049 836,1024 860,1049 C 881,1039 901,1025 922,1006 886,937 835,863 770,784 769,783 710,716 594,584 L 774,223 C 774,196 753,168 711,139 L 727,119 C 717,90 699,76 672,76 641,76 570,178 457,381 L 164,-76 C 142,-110 111,-127 72,-127 30,-127 9,-110 8,-76 1,-67 -2,-52 -2,-32 -2,-23 -1,-13 0,-2 Z"/>
  </g>
  <g id="bullet-char-template-10004" transform="scale(0.00048828125,-0.00048828125)">
   <path d="M 285,-33 C 182,-33 111,30 74,156 52,228 41,333 41,471 41,549 55,616 82,672 116,743 169,778 240,778 293,778 328,747 346,684 L 369,508 C 377,444 397,411 428,410 L 1163,1116 C 1174,1127 1196,1133 1229,1133 1271,1133 1292,1118 1292,1087 L 1292,965 C 1292,929 1282,901 1262,881 L 442,47 C 390,-6 338,-33 285,-33 Z"/>
  </g>
  <g id="bullet-char-template-9679" transform="scale(0.00048828125,-0.00048828125)">
   <path d="M 813,0 C 632,0 489,54 383,161 276,268 223,411 223,592 223,773 276,916 383,1023 489,1130 632,1184 813,1184 992,1184 1136,1130 1245,1023 1353,916 1407,772 1407,592 1407,412 1353,268 1245,161 1136,54 992,0 813,0 Z"/>
  </g>
  <g id="bullet-char-template-8226" transform="scale(0.00048828125,-0.00048828125)">
   <path d="M 346,457 C 273,457 209,483 155,535 101,586 74,649 74,723 74,796 101,859 155,911 209,963 273,989 346,989 419,989 480,963 531,910 582,859 608,796 608,723 608,648 583,586 532,535 482,483 420,457 346,457 Z"/>
  </g>
  <g id="bullet-char-template-8211" transform="scale(0.00048828125,-0.00048828125)">
   <path d="M -4,459 L 1135,459 1135,606 -4,606 -4,459 Z"/>
  </g>
  <g id="bullet-char-template-61548" transform="scale(0.00048828125,-0.00048828125)">
   <path d="M 173,740 C 173,903 231,1043 346,1159 462,1274 601,1332 765,1332 928,1332 1067,1274 1183,1159 1299,1043 1357,903 1357,740 1357,577 1299,437 1183,322 1067,206 928,148 765,148 601,148 462,206 346,322 231,437 173,577 173,740 Z"/>
  </g>
 </defs>
 <g>
  <g id="id2" class="Master_Slide">
   <g id="bg-id2" class="Background"/>
   <g id="bo-id2" class="BackgroundObjects"/>
  </g>
 </g>
 <g class="SlideGroup">
  <g>
   <g id="container-id1">
    <g id="id1" class="Slide" clip-path="url(#presentation_clip_path)">
     <g class="Page">
      <g class="com.sun.star.drawing.PolyPolygonShape">
       <g id="id3">
        <rect class="BoundingBox" stroke="none" fill="none" x="0" y="0" width="11855" height="6775"/>
        <path fill="rgb(243,242,238)" stroke="none" d="M 0,6774 L 11854,6774 11854,0 0,0 0,6774 Z "/>
       </g>
      </g>
      <g class="com.sun.star.drawing.ClosedBezierShape">
       <g id="id4">
        <rect class="BoundingBox" stroke="none" fill="none" x="299" y="330" width="11283" height="6184"/>
        <path fill="rgb(168,27,33)" stroke="none" d="M 11104,1776 C 11115,1784 11107,1804 11093,1804 11080,1804 11068,1759 11076,1745 11086,1729 11105,1735 11100,1753 11095,1762 11097,1772 11104,1776 Z M 11041,1759 C 11037,1759 11040,1749 11046,1737 11052,1725 11058,1705 11058,1691 11058,1677 11064,1671 11069,1674 11076,1677 11080,1691 11080,1703 11080,1725 11057,1759 11041,1759 Z M 11001,1668 C 10989,1689 10973,1676 10982,1651 10989,1635 11013,1628 11013,1643 11013,1648 11008,1659 11001,1668 Z M 10999,1589 C 11018,1589 11016,1620 10996,1628 10982,1632 10979,1628 10983,1603 10985,1586 10989,1568 10989,1563 10990,1558 10996,1558 11003,1562 11012,1567 11010,1572 11000,1579 10989,1586 10988,1589 10999,1589 Z M 11046,1572 C 11049,1546 11051,1551 11059,1595 11064,1625 11066,1653 11062,1656 11050,1668 11042,1630 11046,1572 Z M 11013,1527 C 11007,1531 11001,1528 11001,1523 11001,1516 11007,1510 11013,1510 11019,1510 11024,1513 11024,1515 11024,1518 11019,1524 11013,1527 Z M 11114,1441 C 11092,1481 11069,1501 11069,1482 11069,1459 11170,1336 11180,1345 11182,1349 11174,1360 11162,1372 11150,1384 11128,1415 11114,1441 Z M 11220,1292 C 11215,1287 11280,1228 11293,1228 11297,1228 11284,1244 11263,1263 11243,1282 11224,1296 11220,1292 Z M 11294,1217 C 11283,1217 11288,1202 11310,1174 11327,1152 11332,1166 11318,1193 11311,1206 11301,1217 11294,1217 Z M 11385,1110 C 11368,1132 11362,1135 11367,1121 11373,1108 11382,1084 11388,1066 11400,1031 11416,1026 11414,1056 11414,1069 11400,1092 11385,1110 Z M 6941,465 C 6816,525 6757,550 6743,550 6735,550 6705,564 6674,581 6613,615 6598,646 6615,696 6624,720 6634,726 6670,729 6707,732 6793,714 6856,688 6865,685 6884,680 6896,679 6908,678 6955,659 6997,637 7344,465 7490,465 7788,641 7864,685 7889,697 7904,697 7911,697 7918,702 7918,708 7918,714 7925,720 7934,720 7942,720 7964,728 7981,737 8076,785 8269,786 8415,739 8523,703 8551,691 8743,596 9036,451 9094,444 9261,530 9443,625 9477,639 9564,669 9734,726 9987,756 10037,724 10062,707 10064,707 10057,724 10049,747 10063,748 10092,728 10128,703 10169,696 10161,715 10154,732 10183,738 10193,722 10196,716 10214,714 10235,717 10254,721 10273,717 10277,711 10282,704 10308,696 10336,694 10364,691 10394,686 10402,681 10408,677 10434,671 10457,669 10480,668 10513,660 10530,653 10549,646 10569,641 10576,641 10588,641 10613,634 10753,594 10774,589 10805,581 10821,577 10836,575 10872,565 10900,556 10956,539 11022,524 11026,529 11028,530 11042,525 11056,517 11089,499 11137,511 11137,537 11137,551 11139,553 11147,540 11155,529 11161,531 11175,551 11185,566 11193,574 11193,568 11193,558 11225,599 11245,636 11269,677 11287,828 11281,931 11274,1069 11244,1139 11141,1263 11001,1431 10943,1567 10969,1663 10978,1694 10984,1701 10994,1692 11014,1672 11022,1677 11023,1710 11024,1776 11027,1784 11049,1778 11074,1771 11075,1780 11050,1798 11021,1820 11043,1841 11087,1833 11120,1827 11127,1830 11141,1858 11150,1876 11155,1894 11152,1899 11147,1902 11153,1912 11164,1920 11174,1928 11184,1942 11187,1951 11189,1960 11193,1976 11197,1985 11200,1994 11206,2014 11208,2029 L 11215,2055 11190,2032 C 11173,2016 11159,2012 11148,2019 11136,2027 11138,2034 11163,2059 11188,2083 11197,2086 11209,2076 11223,2065 11228,2067 11240,2089 11259,2124 11260,2329 11242,2347 11234,2355 11227,2370 11227,2380 11227,2404 11177,2451 11166,2440 11162,2434 11158,2436 11159,2442 11165,2469 11157,2483 11130,2494 11113,2500 11103,2508 11107,2512 11111,2515 11050,2582 10970,2659 10891,2736 10827,2804 10829,2809 10831,2816 10824,2820 10815,2820 10806,2820 10798,2828 10798,2837 10798,2847 10790,2858 10781,2861 10772,2866 10766,2872 10770,2877 10773,2883 10766,2892 10756,2898 10745,2905 10743,2911 10751,2911 10757,2911 10764,2915 10764,2922 10764,2928 10755,2930 10745,2926 10729,2920 10728,2922 10738,2933 10746,2942 10747,2957 10741,2977 10734,2994 10734,3028 10739,3060 10746,3094 10746,3115 10739,3117 10734,3120 10739,3133 10752,3148 10774,3174 10780,3189 10777,3209 10775,3217 10782,3226 10843,3295 10861,3316 10877,3338 10877,3342 10877,3348 10893,3359 10911,3369 10930,3379 10945,3392 10945,3397 10945,3403 10976,3440 11016,3481 11056,3521 11096,3570 11107,3591 11118,3612 11143,3654 11163,3685 11195,3735 11199,3751 11198,3818 11196,3935 11170,3971 10957,4152 10780,4303 10753,4339 10753,4425 10753,4475 10759,4496 10781,4527 10797,4548 10809,4570 10809,4574 10809,4606 10906,4710 11059,4843 11287,5043 11355,5122 11396,5234 11426,5320 11419,5388 11371,5478 11337,5543 11196,5698 11145,5726 10913,5854 10802,5886 10583,5887 L 10442,5888 10346,5830 C 10189,5735 10129,5713 10030,5708 9945,5704 9867,5717 9821,5743 9809,5750 9788,5758 9776,5759 9763,5761 9705,5787 9646,5816 9586,5845 9513,5879 9482,5892 9451,5906 9408,5926 9386,5937 9365,5949 9334,5962 9319,5967 9303,5971 9272,5983 9251,5992 9178,6023 9166,6027 9070,6057 9017,6074 8941,6091 8901,6096 8782,6108 8741,6090 8606,5969 8502,5877 8384,5792 8361,5792 8356,5792 8335,5783 8313,5770 8198,5708 7996,5711 7805,5776 7740,5797 7665,5826 7639,5838 7612,5849 7588,5860 7585,5860 7583,5860 7553,5872 7520,5887 7409,5937 7302,5982 7232,6005 7195,6018 7151,6034 7136,6039 7073,6064 6838,6091 6828,6074 6826,6070 6807,6066 6787,6065 6724,6064 6656,6027 6501,5910 6463,5882 6425,5856 6416,5852 6407,5847 6379,5830 6354,5814 6268,5758 6071,5693 6030,5707 6022,5709 5980,5714 5937,5717 5860,5724 5751,5759 5229,5941 4876,6065 4793,6058 4508,5885 4322,5770 4178,5739 4009,5774 3963,5784 3920,5794 3913,5796 3907,5797 3892,5803 3879,5808 3867,5812 3763,5861 3648,5917 3361,6058 3360,6058 3264,6088 3159,6118 2997,6123 2936,6096 2915,6086 2874,6067 2847,6056 2820,6045 2776,6020 2751,6002 2685,5955 2509,5864 2428,5837 2348,5810 2183,5799 2117,5817 2092,5824 2067,5829 2059,5830 2051,5831 2040,5836 2037,5840 2033,5845 2020,5848 2010,5848 1987,5848 1794,5941 1749,5974 1732,5985 1711,5995 1701,5995 1690,5995 1683,5998 1683,6003 1683,6011 1656,6029 1586,6069 1574,6075 1514,6110 1453,6145 1392,6180 1339,6210 1335,6210 1330,6210 1296,6226 1260,6244 1224,6263 1187,6278 1178,6278 1170,6278 1151,6285 1137,6294 1122,6303 1096,6312 1077,6316 1059,6318 1037,6323 1028,6326 970,6348 816,6352 797,6334 791,6328 781,6327 772,6331 759,6335 743,6301 739,6261 737,6236 759,6157 779,6114 834,5993 863,5888 863,5803 861,5704 840,5650 748,5523 657,5393 639,5349 642,5257 643,5212 648,5172 654,5165 658,5159 672,5128 683,5097 703,5042 753,4963 812,4893 828,4874 850,4843 860,4825 883,4788 947,4703 981,4665 995,4651 1005,4632 1005,4623 1005,4615 1021,4592 1039,4573 1065,4547 1071,4533 1067,4512 1061,4493 1065,4483 1078,4477 1088,4474 1093,4466 1090,4459 1086,4453 1090,4448 1098,4448 1108,4448 1108,4444 1095,4436 1082,4427 1080,4422 1092,4404 1110,4374 1101,4270 1071,4194 1031,4085 911,3945 824,3903 803,3892 772,3872 756,3858 741,3844 718,3824 704,3815 662,3785 560,3689 545,3664 508,3597 499,3568 508,3531 532,3426 594,3340 817,3098 928,2976 1001,2819 989,2731 978,2653 968,2617 959,2617 953,2617 948,2607 948,2594 948,2582 944,2572 937,2572 931,2572 926,2564 926,2555 926,2546 916,2532 903,2524 891,2517 881,2504 881,2496 881,2488 876,2482 869,2482 864,2482 858,2475 858,2466 858,2452 820,2432 799,2435 794,2436 790,2431 790,2425 790,2408 692,2314 666,2307 654,2303 643,2294 643,2289 643,2282 639,2279 633,2283 624,2290 659,2336 732,2410 771,2452 775,2476 736,2440 632,2343 589,2307 577,2303 569,2302 550,2286 534,2269 518,2252 500,2240 494,2242 489,2243 486,2226 490,2203 L 497,2160 478,2190 C 457,2231 450,2230 463,2188 468,2167 468,2154 462,2154 455,2154 454,2148 457,2143 462,2136 458,2122 450,2113 433,2093 429,2054 441,2046 446,2043 454,2017 458,1990 462,1962 468,1942 473,1945 477,1947 478,1934 476,1915 472,1889 474,1882 485,1889 494,1894 498,1893 493,1886 486,1876 608,1620 649,1555 655,1546 660,1536 662,1533 663,1526 673,1499 694,1443 721,1374 734,1287 728,1208 712,975 711,925 718,865 725,808 732,792 770,754 826,698 916,663 987,669 1055,676 1155,712 1223,754 1253,773 1279,787 1283,787 1285,787 1327,811 1375,842 1602,982 1811,1037 2018,1013 2174,995 2274,956 2595,783 2979,577 3081,544 3283,553 3412,558 3490,578 3612,639 3699,682 3783,730 3816,756 3831,767 3848,776 3854,776 3861,776 3875,783 3884,792 3903,808 3999,862 4089,907 4119,922 4175,944 4214,956 4412,1017 4553,992 4804,853 4953,770 4978,747 4979,691 4982,604 4915,583 4820,641 4791,659 4763,675 4758,675 4755,675 4727,688 4699,706 4549,796 4386,830 4279,793 4188,760 4008,664 3817,545 3796,531 3753,511 3721,501 3691,489 3656,476 3643,469 3587,438 3503,415 3439,409 3420,408 3394,401 3380,394 3365,386 3353,385 3348,391 3345,397 3325,399 3303,395 3275,391 3263,393 3258,406 3254,418 3234,422 3185,419 3144,418 3117,422 3117,428 3117,435 3107,437 3094,434 3082,431 3072,433 3072,438 3072,444 3057,449 3039,449 2981,449 2720,542 2626,598 2568,630 2449,686 2436,686 2427,686 2413,694 2405,703 2397,712 2383,720 2371,720 2360,720 2345,726 2339,736 2331,745 2307,755 2283,759 2261,764 2237,770 2230,775 2225,781 2194,792 2162,802 1916,880 1708,838 1412,652 1202,521 1103,488 937,496 845,501 821,506 762,537 653,594 580,675 547,775 530,825 528,859 535,983 538,1065 545,1157 549,1188 560,1285 537,1367 436,1578 325,1807 303,1866 300,1951 291,2135 373,2273 591,2440 922,2692 953,2804 759,3038 560,3280 508,3348 476,3412 439,3488 419,3561 417,3621 417,3719 526,3858 717,4003 841,4098 898,4159 939,4242 1005,4374 973,4456 745,4740 515,5027 457,5144 465,5306 468,5372 476,5408 504,5467 524,5508 546,5549 553,5557 604,5617 668,5721 680,5764 695,5824 682,5885 616,6041 546,6210 543,6293 604,6389 657,6475 719,6501 890,6511 1103,6524 1291,6450 1767,6168 2015,6021 2110,5984 2238,5984 2338,5984 2419,6010 2535,6080 2560,6095 2588,6110 2597,6115 2606,6119 2640,6140 2671,6160 2806,6246 2943,6289 3080,6290 3165,6290 3367,6254 3392,6233 3399,6228 3417,6220 3433,6215 3449,6211 3562,6157 3685,6096 3966,5957 4031,5934 4156,5934 4257,5934 4320,5950 4400,5996 4685,6160 4738,6179 4913,6180 5008,6181 5048,6176 5116,6154 5275,6105 5401,6058 5674,5949 5882,5865 5971,5848 6085,5870 6127,5878 6167,5892 6175,5901 6182,5910 6196,5919 6206,5921 6215,5922 6232,5931 6243,5941 6254,5951 6275,5962 6289,5966 6303,5970 6314,5978 6314,5984 6314,6002 6577,6180 6646,6208 6776,6261 6995,6262 7161,6210 7183,6203 7211,6195 7223,6193 7250,6186 7370,6140 7585,6050 7830,5950 7887,5928 7971,5912 8092,5887 8221,5903 8293,5952 8309,5964 8327,5973 8332,5973 8342,5973 8429,6047 8532,6145 8584,6194 8686,6248 8754,6263 8923,6299 9176,6231 9584,6040 9653,6009 9739,5968 9776,5950 9891,5896 9983,5872 10064,5875 10132,5878 10147,5883 10267,5953 10370,6012 10413,6030 10470,6040 10573,6056 10683,6055 10745,6036 10773,6028 10799,6023 10803,6026 10806,6029 10833,6026 10862,6019 10892,6012 10939,6004 10967,6000 11024,5993 11085,5969 11096,5951 11101,5945 11129,5926 11159,5909 11190,5892 11214,5873 11213,5866 11211,5860 11218,5855 11228,5857 11239,5858 11260,5845 11276,5826 11292,5808 11309,5792 11314,5792 11328,5792 11484,5619 11509,5576 11553,5501 11581,5395 11581,5306 11582,5232 11576,5211 11540,5132 11518,5083 11480,5019 11458,4991 11399,4918 11271,4797 11167,4717 11041,4620 10937,4520 10925,4483 10909,4436 10936,4399 11057,4301 11215,4172 11252,4136 11305,4058 11369,3964 11390,3788 11348,3704 11338,3682 11332,3662 11336,3656 11339,3650 11336,3646 11330,3646 11323,3646 11318,3640 11318,3634 11318,3609 11196,3471 11069,3352 10912,3205 10866,3139 10856,3045 10849,2988 10850,2975 10866,2964 10886,2949 10888,2946 10888,2912 10888,2899 10899,2886 10911,2883 10923,2879 10934,2871 10934,2866 10934,2861 10975,2815 11027,2765 11078,2715 11123,2670 11129,2666 11134,2660 11157,2636 11181,2612 11205,2587 11237,2556 11251,2543 11287,2512 11318,2473 11318,2459 11318,2452 11323,2448 11329,2448 11336,2448 11340,2438 11340,2426 11340,2414 11346,2400 11352,2397 11358,2393 11363,2373 11363,2352 11363,2330 11367,2301 11373,2286 11393,2232 11357,2110 11267,1935 11222,1846 11187,1770 11190,1766 11193,1762 11188,1756 11177,1752 11167,1747 11159,1733 11159,1715 11159,1698 11156,1680 11152,1675 11146,1671 11143,1663 11143,1659 11141,1655 11136,1640 11128,1628 11121,1614 11117,1602 11119,1599 11123,1595 11130,1556 11139,1493 11141,1481 11149,1466 11157,1462 11164,1457 11171,1446 11171,1437 11171,1428 11180,1414 11191,1406 11202,1398 11219,1376 11228,1358 11237,1339 11250,1324 11256,1324 11275,1324 11296,1306 11289,1296 11286,1290 11294,1280 11306,1273 11320,1266 11328,1254 11326,1246 11319,1230 11367,1171 11385,1171 11392,1171 11397,1165 11397,1157 11397,1149 11402,1136 11410,1129 11421,1117 11452,1041 11453,1022 11453,1019 11444,1018 11433,1021 11417,1025 11414,1019 11415,985 11416,962 11425,935 11433,925 11442,915 11453,898 11458,889 11462,880 11458,882 11449,894 11427,919 11429,929 11425,765 11424,699 11419,638 11417,629 11414,620 11405,589 11398,560 11379,489 11332,449 11222,407 11148,377 11114,372 11036,371 10984,371 10920,375 10895,382 10834,398 10731,426 10696,438 10665,449 10528,484 10414,511 10059,593 9718,572 9480,450 9454,437 9422,426 9411,426 9400,426 9368,410 9342,392 9316,373 9279,355 9259,350 9238,347 9213,339 9203,334 9190,327 9181,330 9174,344 9164,361 9160,361 9142,347 9130,337 9125,336 9131,344 9137,355 9123,358 9072,358 9035,358 8983,366 8956,376 8929,385 8894,397 8878,399 8862,402 8815,422 8771,443 8728,463 8659,495 8618,511 8578,528 8531,549 8514,558 8496,567 8483,571 8483,566 8483,563 8476,564 8469,571 8451,584 8348,614 8284,623 8183,637 8049,589 7773,437 7627,357 7475,323 7331,338 7220,348 7114,383 6941,465 Z "/>
       </g>
      </g>
      <g class="com.sun.star.drawing.ClosedBezierShape">
       <g id="id5">
        <rect class="BoundingBox" stroke="none" fill="none" x="11434" y="946" width="30" height="34"/>
        <path fill="rgb(168,27,33)" stroke="none" d="M 11443,978 C 11460,971 11470,946 11455,946 11449,946 11440,953 11436,964 11431,975 11435,980 11443,978 Z "/>
       </g>
      </g>
      <g class="com.sun.star.drawing.ClosedBezierShape">
       <g id="id6">
        <rect class="BoundingBox" stroke="none" fill="none" x="11084" y="1849" width="21" height="25"/>
        <path fill="rgb(168,27,33)" stroke="none" d="M 11090,1873 C 11096,1873 11103,1867 11103,1861 11103,1854 11101,1849 11098,1849 11094,1849 11088,1854 11085,1861 11082,1867 11084,1873 11090,1873 Z "/>
       </g>
      </g>
      <g class="com.sun.star.drawing.ClosedBezierShape">
       <g id="id7">
        <rect class="BoundingBox" stroke="none" fill="none" x="11084" y="1895" width="83" height="90"/>
        <path fill="rgb(168,27,33)" stroke="none" d="M 11118,1932 C 11122,1928 11126,1933 11126,1944 11126,1954 11131,1961 11137,1956 11144,1953 11148,1954 11148,1962 11148,1968 11141,1975 11135,1979 11127,1982 11130,1985 11143,1982 11155,1981 11165,1972 11165,1963 11165,1941 11136,1904 11123,1912 11119,1916 11114,1912 11114,1907 11114,1892 11094,1891 11086,1904 11078,1917 11107,1942 11118,1932 Z "/>
       </g>
      </g>
      <g class="com.sun.star.drawing.ClosedBezierShape">
       <g id="id8">
        <rect class="BoundingBox" stroke="none" fill="none" x="11181" y="2098" width="65" height="212"/>
        <path fill="rgb(168,27,33)" stroke="none" d="M 11196,2145 C 11205,2148 11209,2179 11209,2232 11210,2282 11215,2312 11222,2309 11227,2306 11232,2296 11231,2284 11229,2272 11234,2254 11240,2243 11246,2230 11246,2223 11238,2223 11232,2223 11229,2202 11232,2171 11236,2129 11233,2118 11216,2109 11186,2093 11181,2094 11181,2119 11181,2131 11187,2143 11196,2145 Z "/>
       </g>
      </g>
      <g class="com.sun.star.drawing.ClosedBezierShape">
       <g id="id9">
        <rect class="BoundingBox" stroke="none" fill="none" x="543" y="2212" width="11" height="30"/>
        <path fill="rgb(168,27,33)" stroke="none" d="M 551,2236 C 554,2229 553,2217 549,2214 546,2209 542,2216 543,2230 543,2242 547,2245 551,2236 Z "/>
       </g>
      </g>
      <g class="com.sun.star.drawing.ClosedBezierShape">
       <g id="id10">
        <rect class="BoundingBox" stroke="none" fill="none" x="568" y="2238" width="30" height="43"/>
        <path fill="rgb(168,27,33)" stroke="none" d="M 575,2272 C 592,2289 604,2275 590,2250 582,2236 577,2235 570,2245 565,2252 568,2266 575,2272 Z "/>
       </g>
      </g>
      <g class="com.sun.star.drawing.ClosedBezierShape">
       <g id="id11">
        <rect class="BoundingBox" stroke="none" fill="none" x="11193" y="2324" width="30" height="47"/>
        <path fill="rgb(168,27,33)" stroke="none" d="M 11204,2370 C 11209,2370 11216,2360 11219,2346 11227,2319 11210,2316 11200,2342 11190,2366 11190,2370 11204,2370 Z "/>
       </g>
      </g>
      <g class="com.sun.star.drawing.ClosedBezierShape">
       <g id="id12">
        <rect class="BoundingBox" stroke="none" fill="none" x="11171" y="2384" width="34" height="39"/>
        <path fill="rgb(168,27,33)" stroke="none" d="M 11172,2420 C 11175,2423 11185,2418 11193,2408 11201,2398 11206,2387 11202,2385 11199,2381 11190,2386 11182,2397 11173,2407 11169,2417 11172,2420 Z "/>
       </g>
      </g>
      <g class="com.sun.star.drawing.ClosedBezierShape">
       <g id="id13">
        <rect class="BoundingBox" stroke="none" fill="none" x="4760" y="278" width="1954" height="1298"/>
        <path fill="rgb(168,27,33)" stroke="none" d="M 5341,296 C 5366,300 5386,304 5395,307 5406,311 5429,318 5449,324 5468,328 5500,343 5521,356 5542,369 5566,380 5573,381 5581,382 5590,388 5593,393 5596,399 5617,416 5641,432 5665,447 5699,478 5718,501 L 5750,542 5798,534 C 5824,531 5853,525 5862,522 5873,518 5887,526 5902,545 L 5926,573 5963,555 C 6087,496 6213,453 6284,445 6389,435 6420,435 6475,445 6578,465 6584,468 6642,516 6699,563 6719,603 6712,661 6702,745 6632,819 6522,863 6412,905 6201,922 6009,903 L 5888,890 5870,930 C 5850,976 5852,1033 5875,1048 5884,1054 5929,1072 5976,1087 6111,1134 6164,1174 6234,1287 6256,1322 6292,1345 6385,1378 6417,1390 6451,1408 6460,1418 6476,1436 6476,1439 6457,1472 6446,1490 6430,1507 6421,1509 6400,1514 6275,1467 6213,1429 6182,1411 6154,1385 6143,1365 6089,1269 6059,1244 5935,1201 5849,1171 5789,1136 5763,1101 5737,1066 5736,1007 5759,918 L 5768,882 5730,893 C 5676,910 5608,958 5568,1007 5535,1047 5533,1053 5524,1156 5506,1334 5481,1383 5362,1483 5334,1505 5310,1530 5310,1537 5308,1556 5276,1575 5250,1575 5237,1573 5222,1562 5210,1542 5195,1516 5195,1508 5208,1479 5215,1461 5251,1422 5286,1392 5381,1310 5394,1283 5407,1139 5419,1024 5421,1017 5456,962 5477,927 5517,884 5554,856 5587,830 5610,807 5604,807 5597,806 5561,807 5523,809 5218,818 4918,749 4818,644 4759,583 4743,492 4781,431 4823,364 4992,288 5120,279 5131,278 5148,278 5168,279 L 5341,296 Z M 6562,703 C 6605,662 6602,634 6554,599 6521,574 6499,567 6437,559 6395,554 6349,552 6332,555 6262,568 6230,575 6197,585 6150,600 6023,651 6003,663 5995,669 5975,678 5959,684 5944,690 5919,713 5904,735 L 5877,774 6029,784 C 6284,803 6493,771 6562,703 Z M 5661,655 C 5668,581 5538,478 5369,424 5294,399 5132,378 5103,389 5091,394 5070,398 5055,397 5039,397 5021,399 5015,402 5008,405 4995,409 4984,409 4958,410 4896,433 4873,448 4848,465 4847,497 4869,539 4895,586 4991,633 5101,656 5249,684 5452,699 5546,689 5557,687 5588,685 5613,685 5654,682 5658,680 5661,655 Z "/>
       </g>
      </g>
     </g>
    </g>
   </g>
  </g>
 </g>
</svg>