<?xml version="1.0" encoding="UTF-8"?>
<!DOCTYPE svg PUBLIC "-//W3C//DTD SVG 1.1//EN" "http://www.w3.org/Graphics/SVG/1.1/DTD/svg11.dtd">
<svg version="1.2" width="224.1mm" height="313.8mm" viewBox="0 0 22410 31380" preserveAspectRatio="xMidYMid" fill-rule="evenodd" stroke-width="28.222" stroke-linejoin="round" xmlns="http://www.w3.org/2000/svg" xmlns:ooo="http://xml.openoffice.org/svg/export" xmlns:xlink="http://www.w3.org/1999/xlink" xmlns:presentation="http://sun.com/xmlns/staroffice/presentation" xmlns:smil="http://www.w3.org/2001/SMIL20/" xmlns:anim="urn:oasis:names:tc:opendocument:xmlns:animation:1.0" xmlns:svg="urn:oasis:names:tc:opendocument:xmlns:svg-compatible:1.0" xml:space="preserve">
 <defs class="ClipPathGroup">
  <clipPath id="presentation_clip_path" clipPathUnits="userSpaceOnUse">
   <rect x="0" y="0" width="22410" height="31380"/>
  </clipPath>
  <clipPath id="presentation_clip_path_shrink" clipPathUnits="userSpaceOnUse">
   <rect x="22" y="31" width="22366" height="31318"/>
  </clipPath>
 </defs>
 <defs class="TextShapeIndex">
  <g ooo:slide="id1" ooo:id-list="id3"/>
 </defs>
 <defs class="EmbeddedBulletChars">
  <g id="bullet-char-template-57356" transform="scale(0.00048828125,-0.00048828125)">
   <path d="M 580,1141 L 1163,571 580,0 -4,571 580,1141 Z"/>
  </g>
  <g id="bullet-char-template-57354" transform="scale(0.00048828125,-0.00048828125)">
   <path d="M 8,1128 L 1137,1128 1137,0 8,0 8,1128 Z"/>
  </g>
  <g id="bullet-char-template-10146" transform="scale(0.00048828125,-0.00048828125)">
   <path d="M 174,0 L 602,739 174,1481 1456,739 174,0 Z M 1358,739 L 309,1346 659,739 1358,739 Z"/>
  </g>
  <g id="bullet-char-template-10132" transform="scale(0.00048828125,-0.00048828125)">
   <path d="M 2015,739 L 1276,0 717,0 1260,543 174,543 174,936 1260,936 717,1481 1274,1481 2015,739 Z"/>
  </g>
  <g id="bullet-char-template-10007" transform="scale(0.00048828125,-0.00048828125)">
   <path d="M 0,-2 C -7,14 -16,27 -25,37 L 356,567 C 262,823 215,952 215,954 215,979 228,992 255,992 264,992 276,990 289,987 310,991 331,999 354,1012 L 381,999 492,748 772,1049 836,1024 860,1049 C 881,1039 901,1025 922,1006 886,937 835,863 770,784 769,783 710,716 594,584 L 774,223 C 774,196 753,168 711,139 L 727,119 C 717,90 699,76 672,76 641,76 570,178 457,381 L 164,-76 C 142,-110 111,-127 72,-127 30,-127 9,-110 8,-76 1,-67 -2,-52 -2,-32 -2,-23 -1,-13 0,-2 Z"/>
  </g>
  <g id="bullet-char-template-10004" transform="scale(0.00048828125,-0.00048828125)">
   <path d="M 285,-33 C 182,-33 111,30 74,156 52,228 41,333 41,471 41,549 55,616 82,672 116,743 169,778 240,778 293,778 328,747 346,684 L 369,508 C 377,444 397,411 428,410 L 1163,1116 C 1174,1127 1196,1133 1229,1133 1271,1133 1292,1118 1292,1087 L 1292,965 C 1292,929 1282,901 1262,881 L 442,47 C 390,-6 338,-33 285,-33 Z"/>
  </g>
  <g id="bullet-char-template-9679" transform="scale(0.00048828125,-0.00048828125)">
   <path d="M 813,0 C 632,0 489,54 383,161 276,268 223,411 223,592 223,773 276,916 383,1023 489,1130 632,1184 813,1184 992,1184 1136,1130 1245,1023 1353,916 1407,772 1407,592 1407,412 1353,268 1245,161 1136,54 992,0 813,0 Z"/>
  </g>
  <g id="bullet-char-template-8226" transform="scale(0.00048828125,-0.00048828125)">
   <path d="M 346,457 C 273,457 209,483 155,535 101,586 74,649 74,723 74,796 101,859 155,911 209,963 273,989 346,989 419,989 480,963 531,910 582,859 608,796 608,723 608,648 583,586 532,535 482,483 420,457 346,457 Z"/>
  </g>
  <g id="bullet-char-template-8211" transform="scale(0.00048828125,-0.00048828125)">
   <path d="M -4,459 L 1135,459 1135,606 -4,606 -4,459 Z"/>
  </g>
  <g id="bullet-char-template-61548" transform="scale(0.00048828125,-0.00048828125)">
   <path d="M 173,740 C 173,903 231,1043 346,1159 462,1274 601,1332 765,1332 928,1332 1067,1274 1183,1159 1299,1043 1357,903 1357,740 1357,577 1299,437 1183,322 1067,206 928,148 765,148 601,148 462,206 346,322 231,437 173,577 173,740 Z"/>
  </g>
 </defs>
 <g>
  <g id="id2" class="Master_Slide">
   <g id="bg-id2" class="Background"/>
   <g id="bo-id2" class="BackgroundObjects"/>
  </g>
 </g>
 <g class="SlideGroup">
  <g>
   <g id="container-id1">
    <g id="id1" class="Slide" clip-path="url(#presentation_clip_path)">
     <g class="Page">
      <g class="Graphic">
       <g id="id3">
        <rect class="BoundingBox" stroke="none" fill="none" x="0" y="0" width="22411" height="31384"/>
        <defs>
         <clipPath id="clip_path_1" clipPathUnits="userSpaceOnUse">
          <path d="M 0,0 L 22410,0 22410,31383 0,31383 0,0 Z "/>
         </clipPath>
        </defs>
        <g clip-path="url(#clip_path_1)"/>
        <defs>
         <clipPath id="clip_path_2" clipPathUnits="userSpaceOnUse">
          <path d="M 0,0 L 22410,0 22410,31383 0,31383 0,0 Z "/>
         </clipPath>
        </defs>
        <g clip-path="url(#clip_path_2)">
         <path fill="rgb(241,242,238)" stroke="none" d="M 22456,-345 C 22537,-345 22618,-345 22699,-345 22703,10314 22699,20973 22685,31632 22612,31657 22535,31666 22456,31659 22460,21675 22456,11691 22442,1707 22417,1642 22404,1575 22402,1505 22453,890 22471,273 22456,-345 L 22456,-345 Z "/>
         <path fill="rgb(250,250,248)" stroke="none" d="M 22699,-345 C 22708,-345 22717,-345 22726,-345 22726,10332 22726,21009 22726,31686 15146,31686 7566,31686 -14,31686 -14,31677 -14,31668 -14,31659 7476,31659 14966,31659 22456,31659 22535,31666 22612,31657 22685,31632 22699,20973 22703,10314 22699,-345 L 22699,-345 Z "/>
         <path fill="rgb(254,254,254)" stroke="none" d="M 22726,-345 C 22771,-345 22816,-345 22861,-345 22861,10332 22861,21009 22861,31686 22816,31686 22771,31686 22726,31686 22726,21009 22726,10332 22726,-345 L 22726,-345 Z "/>
         <path fill="rgb(243,241,237)" stroke="none" d="M -14,-345 C 7476,-345 14966,-345 22456,-345 22471,273 22453,890 22402,1505 22404,1575 22417,1642 22442,1707 22456,11691 22460,21675 22456,31659 14966,31659 7476,31659 -14,31659 -14,20991 -14,10323 -14,-345 L -14,-345 Z "/>
         <path fill="rgb(163,35,38)" stroke="none" d="M 12950,654 C 13059,695 13167,745 13274,803 13394,898 13511,992 13625,1086 13872,1356 14133,1612 14408,1856 14498,1910 14588,1964 14678,2018 14781,2066 14889,2088 15002,2085 15323,2055 15611,1942 15866,1748 16151,1495 16421,1229 16676,951 16675,1021 16643,1075 16582,1113 16564,1140 16564,1167 16582,1194 16682,1121 16772,1040 16852,951 16866,956 16879,960 16893,965 16857,1026 16821,1089 16784,1154 16793,1167 16802,1181 16811,1194 16839,1158 16875,1140 16920,1140 16941,1034 17004,971 17109,951 17061,1040 16998,1116 16920,1181 16761,1335 16590,1474 16406,1599 16395,1565 16377,1534 16352,1505 16370,1459 16397,1454 16433,1491 16455,1483 16473,1469 16487,1451 16471,1393 16453,1334 16433,1275 16307,1384 16199,1510 16109,1653 16144,1709 16189,1718 16244,1680 16224,1647 16215,1611 16217,1572 16287,1569 16350,1587 16406,1626 16251,1723 16107,1835 15974,1964 15882,1957 15837,1997 15839,2085 15663,2141 15492,2208 15326,2288 15021,2326 14724,2299 14435,2207 14080,2014 13774,1762 13517,1451 13299,1288 13074,1140 12842,1005 12914,1001 12986,1005 13058,1019 13136,1088 13217,1155 13301,1221 13364,1254 13427,1254 13490,1221 13666,1341 13702,1314 13598,1140 13574,1120 13547,1106 13517,1100 13444,1104 13372,1117 13301,1140 13298,1081 13280,1027 13247,978 13252,962 13261,949 13274,938 13205,908 13133,890 13058,884 13105,878 13150,865 13193,843 13137,797 13074,761 13004,735 12931,765 12859,765 12788,735 12854,723 12908,696 12950,654 L 12950,654 Z "/>
         <path fill="rgb(165,32,37)" stroke="none" d="M 20808,546 C 20820,544 20829,549 20835,560 20808,634 20754,670 20673,668 20580,734 20494,811 20417,897 20390,938 20376,983 20376,1032 20429,1026 20479,1035 20525,1059 20555,1009 20569,955 20565,897 20592,897 20619,897 20646,897 20650,945 20641,990 20619,1032 20637,1041 20655,1050 20673,1059 20750,951 20849,865 20970,803 21088,791 21206,800 21322,830 21379,851 21415,891 21430,951 21373,926 21319,895 21268,857 21165,834 21066,843 20970,884 20683,1126 20404,1378 20133,1640 19827,1857 19494,1902 19134,1775 18915,1684 18726,1553 18567,1383 18620,1371 18629,1344 18594,1302 18520,1293 18466,1257 18432,1194 18468,1128 18509,1065 18553,1005 18551,1126 18592,1153 18675,1086 18756,1154 18837,1221 18918,1289 18944,1302 18971,1306 18999,1302 19150,1407 19317,1479 19499,1518 19558,1507 19616,1493 19674,1478 20003,1257 20300,996 20565,695 20637,627 20718,578 20808,546 L 20808,546 Z "/>
         <path fill="rgb(158,38,42)" stroke="none" d="M 17703,519 C 17779,570 17860,620 17946,668 17846,670 17747,657 17649,627 17615,629 17588,642 17568,668 17838,757 18072,901 18270,1100 18288,1104 18306,1109 18324,1113 18384,1063 18447,1018 18513,978 18470,957 18425,943 18378,938 18402,901 18411,860 18405,816 18369,816 18333,816 18297,816 18297,780 18297,744 18297,708 18539,896 18773,1094 18999,1302 18971,1306 18944,1302 18918,1289 18837,1221 18756,1154 18675,1086 18592,1153 18551,1126 18553,1005 18509,1065 18468,1128 18432,1194 18466,1257 18520,1293 18594,1302 18629,1344 18620,1371 18567,1383 18438,1286 18312,1183 18189,1073 18051,973 17907,883 17757,803 17632,768 17506,759 17379,776 17299,851 17209,910 17109,951 17109,906 17109,861 17109,816 17255,802 17381,743 17487,641 17469,623 17451,605 17433,587 17515,532 17605,510 17703,519 L 17703,519 Z "/>
         <path fill="rgb(246,226,223)" stroke="none" d="M 13625,1086 C 13511,992 13394,898 13274,803 13167,745 13059,695 12950,654 12894,620 12831,597 12761,587 12581,573 12401,569 12220,573 12232,554 12250,540 12274,533 12540,506 12801,524 13058,587 13049,596 13040,605 13031,614 13191,694 13353,757 13517,803 13559,896 13595,991 13625,1086 L 13625,1086 Z "/>
         <path fill="rgb(243,241,237)" stroke="none" d="M 8656,1842 C 8696,1905 8750,1955 8818,1991 8951,2049 9086,2103 9223,2153 9421,2171 9619,2171 9817,2153 9859,2147 9895,2134 9925,2112 10164,2069 10389,1988 10600,1869 10996,1662 11374,1428 11734,1167 11743,1167 11752,1167 11761,1167 12090,919 12450,865 12842,1005 13074,1140 13299,1288 13517,1451 13774,1762 14080,2014 14435,2207 14724,2299 15021,2326 15326,2288 15492,2208 15663,2141 15839,2085 15837,1997 15882,1957 15974,1964 16107,1835 16251,1723 16406,1626 16406,1617 16406,1608 16406,1599 16590,1474 16761,1335 16920,1181 16998,1116 17061,1040 17109,951 17209,910 17299,851 17379,776 17506,759 17632,768 17757,803 17907,883 18051,973 18189,1073 18312,1183 18438,1286 18567,1383 18726,1553 18915,1684 19134,1775 19494,1902 19827,1857 20133,1640 20404,1378 20683,1126 20970,884 21066,843 21165,834 21268,857 21319,895 21373,926 21430,951 21647,1144 21737,1387 21700,1680 21697,2021 21607,2336 21430,2626 21296,2795 21152,2957 20997,3112 20833,3249 20689,3402 20565,3571 20470,3708 20439,3861 20471,4030 20527,4297 20658,4513 20862,4678 20862,4687 20862,4696 20862,4705 21074,4967 21259,5246 21416,5542 21430,5677 21434,5812 21430,5948 21395,6015 21368,6087 21349,6164 21186,6447 20952,6650 20646,6771 20569,6844 20497,6921 20430,7001 20319,7122 20256,7266 20241,7433 20225,7436 20211,7445 20201,7460 20183,7668 20192,7875 20228,8081 20248,8130 20271,8175 20295,8216 20360,8453 20454,8678 20579,8891 20832,9226 21075,9568 21308,9918 21321,9943 21326,9970 21322,9999 21323,10036 21323,10077 21322,10120 21341,10154 21363,10186 21389,10215 21432,10472 21396,10715 21281,10944 21251,10985 21211,11003 21160,10998 21160,11043 21160,11088 21160,11133 21133,11133 21106,11133 21079,11133 21065,11195 21056,11258 21051,11322 20949,11445 20841,11562 20727,11673 20727,11682 20727,11691 20727,11700 20475,11926 20286,12196 20160,12510 20160,12519 20160,12528 20160,12537 20096,12647 20069,12769 20079,12902 20077,13089 20113,13265 20187,13429 20212,13533 20253,13632 20309,13726 20381,13834 20453,13942 20525,14050 20544,14026 20567,14008 20592,13996 20616,14077 20643,14086 20673,14023 20740,14066 20794,14120 20835,14185 21009,14376 21171,14574 21322,14779 21566,15228 21544,15669 21254,16102 21047,16386 20835,16665 20619,16940 20521,17064 20436,17199 20363,17345 20321,17440 20298,17539 20295,17642 20255,17742 20237,17850 20241,17966 20241,18043 20250,18115 20268,18182 20277,18361 20331,18523 20430,18668 20537,18990 20699,19278 20916,19532 21067,19805 21225,20075 21389,20343 21561,20661 21548,20967 21349,21261 21142,21472 20940,21688 20741,21909 20490,22204 20350,22546 20322,22935 20327,23087 20354,23231 20403,23368 20426,23547 20489,23709 20592,23854 20641,23997 20709,24132 20795,24259 21003,24512 21201,24773 21389,25042 21483,25184 21555,25337 21605,25501 21627,25639 21618,25774 21578,25906 21423,26092 21266,26273 21106,26446 20844,26680 20664,26968 20565,27311 20535,27367 20517,27430 20511,27500 20482,27736 20536,27952 20673,28148 20673,28157 20673,28166 20673,28175 20722,28331 20803,28466 20916,28580 20916,28598 20925,28607 20943,28607 21051,28804 21172,28993 21308,29174 21322,29273 21326,29372 21322,29471 21290,29614 21250,29758 21200,29903 21163,29990 21105,30053 21024,30092 20959,30098 20932,30134 20943,30201 20830,30233 20749,30305 20700,30417 20565,30441 20430,30468 20295,30498 20237,30465 20178,30465 20120,30498 19987,30434 19848,30389 19701,30363 19681,30344 19663,30326 19647,30309 19658,30289 19676,30276 19701,30268 19670,30248 19670,30226 19701,30201 19656,30182 19611,30165 19566,30146 19500,30054 19419,29981 19323,29930 19356,29913 19392,29895 19431,29876 19422,29867 19413,29858 19404,29849 19294,29812 19186,29776 19080,29741 19080,29705 19080,29669 19080,29633 18871,29576 18655,29540 18432,29525 18333,29537 18234,29546 18135,29552 18135,29579 18135,29606 18135,29633 18007,29586 17877,29541 17743,29498 17702,29526 17657,29543 17608,29552 17503,29502 17390,29475 17271,29471 17271,29498 17271,29525 17271,29552 17316,29548 17362,29553 17406,29566 17530,29705 17674,29727 17838,29633 17838,29660 17838,29687 17838,29714 17838,29732 17829,29741 17811,29741 17726,29744 17663,29780 17622,29849 17581,29863 17545,29881 17514,29903 17367,29975 17214,30034 17055,30079 16750,30272 16426,30411 16082,30498 16046,30498 16010,30498 15974,30498 15750,30478 15525,30465 15299,30457 15195,30433 15096,30397 15002,30349 15037,30336 15073,30331 15110,30336 15115,30292 15102,30256 15070,30228 14986,30321 14901,30317 14813,30214 14796,30194 14783,30171 14773,30146 14764,30155 14754,30165 14746,30173 14721,30123 14680,30096 14624,30092 14487,29965 14343,29843 14192,29728 14140,29698 14086,29675 14030,29660 13982,29631 13928,29608 13868,29593 13724,29575 13580,29575 13436,29593 13261,29649 13099,29725 12950,29822 12865,29841 12784,29873 12707,29917 12495,30040 12288,30162 12085,30282 11932,30306 11788,30356 11653,30430 11465,30464 11276,30473 11086,30457 10979,30422 10880,30372 10789,30309 10625,30162 10454,30027 10276,29903 10005,29642 9681,29547 9304,29620 9256,29667 9202,29699 9142,29714 9107,29708 9080,29717 9061,29741 8850,29856 8661,29982 8494,30119 8454,30112 8418,30121 8385,30146 8335,30266 8276,30275 8210,30173 8192,30220 8197,30265 8223,30309 8192,30348 8152,30375 8102,30390 8099,30308 8077,30236 8034,30173 8016,30173 7998,30173 7980,30173 7982,30162 7978,30153 7967,30146 7903,30175 7835,30193 7764,30201 7764,30246 7764,30290 7764,30336 7432,30556 7063,30692 6657,30741 6505,30721 6352,30707 6198,30700 6075,30672 5958,30631 5847,30579 5829,30570 5811,30561 5793,30552 5696,30464 5597,30374 5496,30282 5453,30193 5390,30121 5307,30065 5261,29975 5216,29885 5172,29795 5242,29779 5242,29757 5172,29728 5189,29692 5171,29670 5118,29660 5047,29591 4984,29515 4929,29431 4522,29219 4126,29237 3740,29485 3454,29686 3184,29907 2930,30146 2814,30218 2697,30290 2579,30363 2480,30400 2377,30427 2269,30444 1918,30322 1562,30313 1202,30417 1202,30390 1202,30363 1202,30336 1162,30329 1126,30337 1094,30363 1142,30432 1196,30495 1256,30552 1281,30519 1290,30484 1283,30444 1466,30452 1646,30434 1823,30390 1922,30442 2030,30470 2147,30471 2147,30498 2147,30525 2147,30552 2025,30564 1908,30596 1796,30646 1568,30672 1343,30658 1121,30606 928,30462 865,30273 932,30038 999,29850 1085,29670 1188,29498 1305,29341 1427,29188 1553,29039 1690,28911 1807,28767 1904,28607 2035,28253 2004,27911 1809,27581 1738,27460 1652,27352 1553,27257 1462,27139 1372,27022 1283,26906 1132,26696 1011,26471 918,26230 870,26051 866,25871 905,25690 980,25539 1071,25395 1175,25258 1396,25032 1630,24821 1877,24623 1962,24539 2047,24453 2134,24367 2147,24341 2151,24314 2147,24286 2357,24128 2479,23912 2512,23638 2568,23295 2487,22988 2269,22719 1968,22405 1658,22108 1337,21828 1275,21721 1194,21631 1094,21558 990,21378 909,21189 851,20991 841,20791 855,20593 891,20397 970,20237 1060,20084 1161,19938 1352,19716 1536,19491 1715,19262 1796,19181 1868,19091 1931,18992 2234,18666 2396,18279 2417,17831 2435,17662 2399,17509 2309,17372 2294,17315 2272,17261 2242,17210 2185,17123 2122,17042 2052,16967 1806,16743 1568,16518 1337,16292 1319,16283 1301,16274 1283,16265 1028,15953 956,15602 1067,15211 1269,14861 1485,14519 1715,14185 2063,13774 2221,13297 2188,12754 2070,12334 1831,12001 1472,11754 1302,11598 1136,11436 972,11268 917,11193 876,11112 851,11025 830,10855 821,10684 824,10512 842,10426 873,10345 918,10269 1046,10091 1168,9911 1283,9729 1431,9554 1557,9365 1661,9161 1670,9161 1679,9161 1688,9161 1907,8826 1984,8456 1917,8054 1915,7996 1892,7951 1850,7919 1775,7718 1649,7556 1472,7433 1310,7294 1157,7150 1013,7001 959,6929 905,6857 851,6785 716,6440 756,6116 972,5813 1172,5546 1365,5276 1553,5002 1670,4821 1743,4623 1769,4408 1800,4287 1804,4161 1782,4030 1776,3966 1753,3912 1715,3868 1671,3725 1599,3599 1499,3490 1288,3232 1076,2971 864,2707 736,2408 741,2111 878,1815 1003,1658 1134,1505 1269,1356 1273,1272 1277,1191 1283,1113 1337,1086 1391,1059 1445,1032 1468,971 1513,944 1580,951 1800,841 2034,814 2282,870 2349,913 2421,940 2498,951 2748,1116 2960,1323 3133,1572 3270,1723 3419,1859 3578,1977 3748,2141 3950,2240 4186,2275 4228,2272 4269,2263 4308,2247 4330,2272 4357,2290 4389,2302 4507,2256 4628,2219 4753,2193 4783,2196 4810,2205 4834,2220 4875,2190 4911,2163 4942,2139 4978,2196 5014,2187 5050,2112 5087,2136 5127,2145 5172,2139 5172,2112 5172,2085 5172,2058 5223,2060 5273,2051 5320,2031 5354,2038 5381,2056 5401,2085 5414,2060 5419,2033 5415,2004 5424,2004 5433,2004 5442,2004 5449,2026 5463,2044 5482,2058 5519,1989 5569,1935 5631,1896 5668,1901 5704,1896 5739,1883 6060,1654 6357,1393 6630,1100 6734,1034 6833,962 6927,884 7251,681 7557,708 7845,965 8085,1204 8305,1460 8507,1734 8561,1766 8610,1802 8656,1842 L 8656,1842 Z "/>
         <path fill="rgb(176,24,32)" stroke="none" d="M 16406,1599 C 16406,1608 16406,1617 16406,1626 16350,1587 16287,1569 16217,1572 16215,1611 16224,1647 16244,1680 16189,1718 16144,1709 16109,1653 16199,1510 16307,1384 16433,1275 16453,1334 16471,1393 16487,1451 16473,1469 16455,1483 16433,1491 16397,1454 16370,1459 16352,1505 16377,1534 16395,1565 16406,1599 L 16406,1599 Z "/>
         <path fill="rgb(172,25,31)" stroke="none" d="M 8629,1329 C 8629,1365 8647,1383 8683,1383 8654,1471 8635,1561 8629,1653 8520,1702 8484,1671 8521,1559 8306,1487 8261,1357 8385,1167 8410,1138 8437,1138 8467,1167 8492,1209 8501,1254 8494,1302 8540,1306 8585,1315 8629,1329 L 8629,1329 Z "/>
         <path fill="rgb(160,35,40)" stroke="none" d="M 11734,1167 C 11374,1428 10996,1662 10600,1869 10605,1834 10596,1802 10573,1775 10492,1766 10411,1757 10330,1748 10362,1730 10362,1717 10330,1707 10196,1699 10061,1717 9925,1761 10109,1674 10298,1593 10492,1518 10503,1538 10521,1551 10546,1559 10487,1591 10424,1605 10357,1599 10351,1631 10360,1658 10384,1680 10524,1647 10659,1602 10789,1545 10789,1581 10789,1617 10789,1653 10737,1646 10692,1660 10654,1694 10767,1749 10857,1722 10924,1613 10959,1600 10995,1595 11032,1599 11032,1554 11032,1509 11032,1464 11123,1474 11204,1451 11275,1397 11221,1388 11167,1379 11113,1370 11131,1352 11149,1334 11167,1316 11351,1253 11540,1203 11734,1167 L 11734,1167 Z "/>
         <path fill="rgb(153,46,48)" stroke="none" d="M 11383,951 C 11386,1005 11368,1050 11329,1086 11191,1142 11065,1218 10951,1316 10898,1329 10844,1334 10789,1329 10979,1193 11177,1067 11383,951 L 11383,951 Z "/>
         <path fill="rgb(169,29,34)" stroke="none" d="M 11761,1167 C 11752,1167 11743,1167 11734,1167 11540,1203 11351,1253 11167,1316 11149,1334 11131,1352 11113,1370 11167,1379 11221,1388 11275,1397 11204,1451 11123,1474 11032,1464 11032,1509 11032,1554 11032,1599 10995,1595 10959,1600 10924,1613 10857,1722 10767,1749 10654,1694 10692,1660 10737,1646 10789,1653 10789,1617 10789,1581 10789,1545 10659,1602 10524,1647 10384,1680 10360,1658 10351,1631 10357,1599 10424,1605 10487,1591 10546,1559 10521,1551 10503,1538 10492,1518 10583,1446 10682,1383 10789,1329 10844,1334 10898,1329 10951,1316 11065,1218 11191,1142 11329,1086 11368,1050 11386,1005 11383,951 11392,951 11401,951 11410,951 11458,959 11504,950 11545,924 11587,890 11627,854 11667,816 11748,859 11833,890 11923,911 11948,1014 11903,1077 11788,1100 11768,1118 11759,1140 11761,1167 L 11761,1167 Z "/>
         <path fill="rgb(171,25,31)" stroke="none" d="M 17703,519 C 17605,510 17515,532 17433,587 17451,605 17469,623 17487,641 17381,743 17255,802 17109,816 17109,861 17109,906 17109,951 17004,971 16941,1034 16920,1140 16875,1140 16839,1158 16811,1194 16802,1181 16793,1167 16784,1154 16821,1089 16857,1026 16893,965 16879,960 16866,956 16852,951 16772,1040 16682,1121 16582,1194 16564,1167 16564,1140 16582,1113 16643,1075 16675,1021 16676,951 16685,951 16694,951 16703,951 16755,898 16818,858 16893,830 16970,673 17096,606 17271,627 17271,591 17271,555 17271,519 17419,496 17563,496 17703,519 L 17703,519 Z "/>
         <path fill="rgb(165,31,35)" stroke="none" d="M 7764,465 C 7773,507 7800,525 7845,519 7975,579 8092,661 8196,762 8363,937 8507,1126 8629,1329 8585,1315 8540,1306 8494,1302 8501,1254 8492,1209 8467,1167 8437,1138 8410,1138 8385,1167 8261,1357 8306,1487 8521,1559 8484,1671 8520,1702 8629,1653 8635,1561 8654,1471 8683,1383 9015,1764 9429,1890 9925,1761 10061,1717 10196,1699 10330,1707 10362,1717 10362,1730 10330,1748 10411,1757 10492,1766 10573,1775 10596,1802 10605,1834 10600,1869 10389,1988 10164,2069 9925,2112 9690,2121 9456,2112 9223,2085 9093,2052 8967,2011 8845,1964 8792,1906 8728,1865 8656,1842 8610,1802 8561,1766 8507,1734 8305,1460 8085,1204 7845,965 7557,708 7251,681 6927,884 6833,962 6734,1034 6630,1100 6357,1393 6060,1654 5739,1883 5704,1896 5668,1901 5631,1896 5529,1874 5466,1910 5442,2004 5433,2004 5424,2004 5415,2004 5292,2005 5175,1982 5064,1937 5145,1879 5235,1838 5334,1815 5352,1788 5370,1761 5388,1734 5863,1334 6340,934 6819,533 7124,364 7439,342 7764,465 L 7764,465 Z "/>
         <path fill="rgb(168,28,33)" stroke="none" d="M 17703,519 C 17784,519 17865,519 17946,519 18075,559 18192,622 18297,708 18297,744 18297,780 18297,816 18333,816 18369,816 18405,816 18411,860 18402,901 18378,938 18425,943 18470,957 18513,978 18447,1018 18384,1063 18324,1113 18306,1109 18288,1104 18270,1100 18072,901 17838,757 17568,668 17588,642 17615,629 17649,627 17747,657 17846,670 17946,668 17860,620 17779,570 17703,519 L 17703,519 Z "/>
         <path fill="rgb(170,26,33)" stroke="none" d="M 12950,654 C 12908,696 12854,723 12788,735 12859,765 12931,765 13004,735 13074,761 13137,797 13193,843 13150,865 13105,878 13058,884 13133,890 13205,908 13274,938 13261,949 13252,962 13247,978 13280,1027 13298,1081 13301,1140 13372,1117 13444,1104 13517,1100 13547,1106 13574,1120 13598,1140 13702,1314 13666,1341 13490,1221 13427,1254 13364,1254 13301,1221 13217,1155 13136,1088 13058,1019 12986,1005 12914,1001 12842,1005 12828,968 12801,941 12761,924 12562,891 12364,891 12166,924 12102,915 12039,901 11977,884 11956,830 11920,790 11869,762 11939,743 12011,743 12085,762 12085,726 12085,690 12085,654 12373,625 12661,625 12950,654 L 12950,654 Z "/>
         <path fill="rgb(168,27,31)" stroke="none" d="M 20808,546 C 20818,523 20836,514 20862,519 21044,526 21224,549 21403,587 21623,649 21749,789 21781,1005 21778,1031 21769,1053 21754,1073 21791,1104 21814,1145 21821,1194 21838,1141 21865,1132 21902,1167 21920,1383 21933,1599 21943,1815 21898,1815 21853,1815 21808,1815 21817,1670 21808,1526 21781,1383 21737,1310 21715,1229 21713,1140 21622,1066 21528,1003 21430,951 21415,891 21379,851 21322,830 21206,800 21088,791 20970,803 20849,865 20750,951 20673,1059 20655,1050 20637,1041 20619,1032 20641,990 20650,945 20646,897 20619,897 20592,897 20565,897 20569,955 20555,1009 20525,1059 20479,1035 20429,1026 20376,1032 20376,983 20390,938 20417,897 20494,811 20580,734 20673,668 20754,670 20808,634 20835,560 20829,549 20820,544 20808,546 L 20808,546 Z "/>
         <path fill="rgb(157,37,41)" stroke="none" d="M 12220,573 C 12401,569 12581,573 12761,587 12831,597 12894,620 12950,654 12661,625 12373,625 12085,654 12085,690 12085,726 12085,762 12011,743 11939,743 11869,762 11920,790 11956,830 11977,884 12039,901 12102,915 12166,924 12364,891 12562,891 12761,924 12801,941 12828,968 12842,1005 12450,865 12090,919 11761,1167 11759,1140 11768,1118 11788,1100 11903,1077 11948,1014 11923,911 11833,890 11748,859 11667,816 11627,854 11587,890 11545,924 11504,950 11458,959 11410,951 11650,768 11921,642 12220,573 L 12220,573 Z "/>
         <path fill="rgb(106,68,77)" stroke="none" d="M 7764,465 C 7797,477 7824,495 7845,519 7800,525 7773,507 7764,465 L 7764,465 Z "/>
         <path fill="rgb(156,43,48)" stroke="none" d="M 17946,519 C 17865,519 17784,519 17703,519 17563,496 17419,496 17271,519 17271,555 17271,591 17271,627 17096,606 16970,673 16893,830 16818,858 16755,898 16703,951 16955,560 17315,393 17784,451 17844,467 17898,489 17946,519 L 17946,519 Z "/>
         <path fill="rgb(153,64,64)" stroke="none" d="M 5631,1896 C 5569,1935 5519,1989 5482,2058 5463,2044 5449,2026 5442,2004 5466,1910 5529,1874 5631,1896 L 5631,1896 Z "/>
         <path fill="rgb(164,33,40)" stroke="none" d="M 21808,2680 C 21842,2566 21869,2449 21889,2329 21853,2329 21817,2329 21781,2329 21810,2229 21810,2130 21781,2031 21756,2064 21747,2100 21754,2139 21727,2139 21700,2139 21673,2139 21659,2235 21677,2320 21727,2396 21679,2401 21634,2415 21592,2437 21556,2517 21502,2580 21430,2626 21607,2336 21697,2021 21700,1680 21737,1387 21647,1144 21430,951 21528,1003 21622,1066 21713,1140 21715,1229 21737,1310 21781,1383 21808,1526 21817,1670 21808,1815 21853,1815 21898,1815 21943,1815 21933,1599 21920,1383 21902,1167 21865,1132 21838,1141 21821,1194 21814,1145 21791,1104 21754,1073 21769,1053 21778,1031 21781,1005 21749,789 21623,649 21403,587 21224,549 21044,526 20862,519 21254,402 21574,510 21821,843 22026,1311 22080,1797 21983,2302 21946,2440 21887,2566 21808,2680 L 21808,2680 Z "/>
         <path fill="rgb(160,39,42)" stroke="none" d="M 3605,1599 C 3791,1778 4007,1908 4254,1991 4398,2009 4542,2009 4686,1991 4929,1929 5163,1844 5388,1734 5370,1761 5352,1788 5334,1815 5235,1838 5145,1879 5064,1937 5175,1982 5292,2005 5415,2004 5419,2033 5414,2060 5401,2085 5381,2056 5354,2038 5320,2031 5273,2051 5223,2060 5172,2058 5172,2085 5172,2112 5172,2139 5127,2145 5087,2136 5050,2112 5014,2187 4978,2196 4942,2139 4911,2163 4875,2190 4834,2220 4810,2205 4783,2196 4753,2193 4628,2219 4507,2256 4389,2302 4357,2290 4330,2272 4308,2247 4269,2263 4228,2272 4186,2275 3950,2240 3748,2141 3578,1977 3685,2006 3784,2056 3875,2126 3929,2144 3974,2131 4010,2085 4037,2098 4059,2116 4078,2139 4082,2130 4087,2121 4091,2112 4074,2079 4070,2043 4078,2004 4067,2017 4053,2026 4037,2031 3986,1931 3909,1895 3808,1923 3778,1884 3760,1839 3754,1788 3705,1766 3655,1743 3605,1721 3630,1683 3630,1642 3605,1599 L 3605,1599 Z "/>
         <path fill="rgb(150,54,53)" stroke="none" d="M 8656,1842 C 8728,1865 8792,1906 8845,1964 8967,2011 9093,2052 9223,2085 9456,2112 9690,2121 9925,2112 9895,2134 9859,2147 9817,2153 9619,2171 9421,2171 9223,2153 9086,2103 8951,2049 8818,1991 8750,1955 8696,1905 8656,1842 L 8656,1842 Z "/>
         <path fill="rgb(170,26,30)" stroke="none" d="M 4199,2031 C 4411,2019 4618,2037 4821,2085 4821,2112 4821,2139 4821,2166 4649,2192 4478,2192 4308,2166 4267,2146 4227,2128 4186,2112 4173,2083 4178,2056 4199,2031 L 4199,2031 Z "/>
         <path fill="rgb(154,73,76)" stroke="none" d="M 419,2031 C 406,2193 397,2355 392,2518 374,2460 365,2397 365,2329 361,2222 379,2123 419,2031 L 419,2031 Z "/>
         <path fill="rgb(165,33,37)" stroke="none" d="M 3605,1599 C 3630,1642 3630,1683 3605,1721 3655,1743 3705,1766 3754,1788 3760,1839 3778,1884 3808,1923 3909,1895 3986,1931 4037,2031 4053,2026 4067,2017 4078,2004 4070,2043 4074,2079 4091,2112 4087,2121 4082,2130 4078,2139 4059,2116 4037,2098 4010,2085 3974,2131 3929,2144 3875,2126 3784,2056 3685,2006 3578,1977 3419,1859 3270,1723 3133,1572 2960,1323 2748,1116 2498,951 2498,924 2498,897 2498,870 2426,879 2363,861 2309,816 2323,797 2341,784 2363,776 2284,754 2211,718 2147,668 2002,645 1858,650 1715,681 1858,708 2002,717 2147,708 2147,735 2147,762 2147,789 1952,784 1763,811 1580,870 1580,897 1580,924 1580,951 1513,944 1468,971 1445,1032 1391,1059 1337,1086 1283,1113 1277,1191 1273,1272 1269,1356 1134,1505 1003,1658 878,1815 741,2111 736,2408 864,2707 1076,2971 1288,3232 1499,3490 1413,3427 1341,3350 1283,3260 1232,3241 1192,3255 1161,3301 1113,3251 1108,3197 1148,3139 1084,3093 1030,3039 986,2977 913,3080 927,3161 1026,3220 1032,3255 1027,3291 1013,3328 1124,3469 1214,3622 1283,3787 1066,3518 837,3257 594,3004 474,2863 407,2701 392,2518 397,2355 406,2193 419,2031 587,1411 947,939 1499,614 1887,453 2274,453 2660,614 2852,752 3028,909 3187,1086 3314,1268 3453,1439 3605,1599 L 3605,1599 Z "/>
         <path fill="rgb(160,45,46)" stroke="none" d="M 2498,951 C 2421,940 2349,913 2282,870 2034,814 1800,841 1580,951 1580,924 1580,897 1580,870 1763,811 1952,784 2147,789 2147,762 2147,735 2147,708 2002,717 1858,708 1715,681 1858,650 2002,645 2147,668 2211,718 2284,754 2363,776 2341,784 2323,797 2309,816 2363,861 2426,879 2498,870 2498,897 2498,924 2498,951 L 2498,951 Z "/>
         <path fill="rgb(170,26,31)" stroke="none" d="M 21808,2680 C 21747,2754 21680,2826 21605,2896 21592,2921 21588,2948 21592,2977 21565,2977 21538,2977 21511,2977 21511,2950 21511,2923 21511,2896 21457,2896 21403,2896 21349,2896 21349,2932 21349,2968 21349,3004 21406,2994 21442,3017 21457,3071 21411,3166 21339,3225 21241,3247 21249,3360 21195,3414 21079,3409 21074,3372 21079,3336 21092,3301 21163,3261 21222,3207 21268,3139 21250,3103 21232,3067 21214,3031 21238,2912 21297,2813 21389,2734 21410,2700 21424,2664 21430,2626 21502,2580 21556,2517 21592,2437 21634,2415 21679,2401 21727,2396 21677,2320 21659,2235 21673,2139 21700,2139 21727,2139 21754,2139 21747,2100 21756,2064 21781,2031 21810,2130 21810,2229 21781,2329 21817,2329 21853,2329 21889,2329 21869,2449 21842,2566 21808,2680 L 21808,2680 Z "/>
         <path fill="rgb(158,38,39)" stroke="none" d="M 21430,2626 C 21424,2664 21410,2700 21389,2734 21297,2813 21238,2912 21214,3031 21232,3067 21250,3103 21268,3139 21222,3207 21163,3261 21092,3301 21079,3336 21074,3372 21079,3409 21195,3414 21249,3360 21241,3247 21339,3225 21411,3166 21457,3071 21442,3017 21406,2994 21349,3004 21349,2968 21349,2932 21349,2896 21403,2896 21457,2896 21511,2896 21511,2923 21511,2950 21511,2977 21538,2977 21565,2977 21592,2977 21588,2948 21592,2921 21605,2896 21680,2826 21747,2754 21808,2680 21793,2736 21770,2790 21740,2842 21499,3137 21238,3416 20957,3679 20867,3809 20840,3953 20876,4111 20921,4219 20979,4318 21051,4408 20997,4399 20943,4390 20889,4381 20883,4306 20847,4248 20781,4206 20784,4087 20788,3966 20795,3841 20834,3771 20865,3699 20889,3625 20993,3609 21038,3546 21024,3436 20997,3436 20970,3436 20943,3436 20939,3407 20944,3380 20957,3355 21060,3266 21114,3167 21119,3058 21084,3090 21043,3108 20997,3112 21152,2957 21296,2795 21430,2626 L 21430,2626 Z "/>
         <path fill="rgb(170,26,33)" stroke="none" d="M 21051,4408 C 21051,4435 21051,4462 21051,4489 20997,4480 20943,4471 20889,4462 20860,4582 20905,4636 21024,4624 21032,4672 21023,4717 20997,4759 20955,4733 20910,4715 20862,4705 20862,4696 20862,4687 20862,4678 20806,4607 20761,4526 20727,4435 20696,4424 20669,4406 20646,4381 20606,4282 20565,4183 20525,4084 20510,3911 20523,3740 20565,3571 20689,3402 20833,3249 20997,3112 21043,3108 21084,3090 21119,3058 21114,3167 21060,3266 20957,3355 20944,3380 20939,3407 20943,3436 20970,3436 20997,3436 21024,3436 21038,3546 20993,3609 20889,3625 20865,3699 20834,3771 20795,3841 20788,3966 20784,4087 20781,4206 20847,4248 20883,4306 20889,4381 20943,4390 20997,4399 21051,4408 L 21051,4408 Z "/>
         <path fill="rgb(156,54,57)" stroke="none" d="M 20565,3571 C 20523,3740 20510,3911 20525,4084 20565,4183 20606,4282 20646,4381 20669,4406 20696,4424 20727,4435 20761,4526 20806,4607 20862,4678 20658,4513 20527,4297 20471,4030 20439,3861 20470,3708 20565,3571 L 20565,3571 Z "/>
         <path fill="rgb(149,63,63)" stroke="none" d="M 1715,3868 C 1753,3912 1776,3966 1782,4030 1804,4161 1800,4287 1769,4408 1772,4226 1754,4046 1715,3868 L 1715,3868 Z "/>
         <path fill="rgb(168,53,60)" stroke="none" d="M 1310,3841 C 1337,3841 1364,3841 1391,3841 1428,4065 1455,4290 1472,4516 1438,4540 1406,4567 1377,4597 1354,4698 1305,4779 1229,4840 1265,4719 1314,4602 1377,4489 1410,4266 1388,4050 1310,3841 L 1310,3841 Z "/>
         <path fill="rgb(168,28,33)" stroke="none" d="M 1499,3490 C 1599,3599 1671,3725 1715,3868 1754,4046 1772,4226 1769,4408 1743,4623 1670,4821 1553,5002 1487,5018 1442,5059 1418,5124 1383,5142 1352,5138 1323,5110 1318,5146 1322,5182 1337,5218 1309,5260 1291,5305 1283,5353 1247,5353 1211,5353 1175,5353 1175,5326 1175,5299 1175,5272 1135,5265 1099,5274 1067,5299 1106,5357 1124,5420 1121,5488 1089,5494 1062,5485 1040,5461 1019,5413 1001,5363 986,5313 1031,5242 1063,5166 1080,5083 1161,5032 1201,4960 1202,4867 1202,4849 1211,4840 1229,4840 1305,4779 1354,4698 1377,4597 1406,4567 1438,4540 1472,4516 1455,4290 1428,4065 1391,3841 1364,3841 1337,3841 1310,3841 1287,3832 1278,3814 1283,3787 1214,3622 1124,3469 1013,3328 1027,3291 1032,3255 1026,3220 927,3161 913,3080 986,2977 1030,3039 1084,3093 1148,3139 1108,3197 1113,3251 1161,3301 1192,3255 1232,3241 1283,3260 1341,3350 1413,3427 1499,3490 L 1499,3490 Z "/>
         <path fill="rgb(159,37,41)" stroke="none" d="M 21051,4408 C 21162,4482 21243,4581 21295,4705 21229,4648 21157,4603 21079,4570 21094,4735 21121,4897 21160,5056 21224,5053 21274,5080 21308,5137 21430,5376 21484,5628 21470,5894 21463,5918 21449,5936 21430,5948 21434,5812 21430,5677 21416,5542 21259,5246 21074,4967 20862,4705 20910,4715 20955,4733 20997,4759 21023,4717 21032,4672 21024,4624 20905,4636 20860,4582 20889,4462 20943,4471 20997,4480 21051,4489 21051,4462 21051,4435 21051,4408 L 21051,4408 Z "/>
         <path fill="rgb(170,26,32)" stroke="none" d="M 21295,4705 C 21300,4747 21318,4783 21349,4813 21325,4834 21298,4847 21268,4854 21350,4915 21418,4992 21470,5083 21496,5144 21510,5207 21511,5272 21538,5272 21565,5272 21592,5272 21587,5309 21592,5345 21605,5380 21647,5243 21669,5243 21673,5380 21632,5644 21605,5910 21592,6177 21626,6254 21626,6331 21592,6407 21569,6431 21542,6440 21511,6434 21530,6360 21530,6288 21511,6218 21344,6441 21290,6423 21349,6164 21368,6087 21395,6015 21430,5948 21449,5936 21463,5918 21470,5894 21484,5628 21430,5376 21308,5137 21274,5080 21224,5053 21160,5056 21121,4897 21094,4735 21079,4570 21157,4603 21229,4648 21295,4705 L 21295,4705 Z "/>
         <path fill="rgb(159,39,43)" stroke="none" d="M 1202,4867 C 1201,4960 1161,5032 1080,5083 1063,5166 1031,5242 986,5313 1001,5363 1019,5413 1040,5461 1062,5485 1089,5494 1121,5488 1124,5420 1106,5357 1067,5299 1099,5274 1135,5265 1175,5272 1175,5299 1175,5326 1175,5353 1211,5353 1247,5353 1283,5353 1291,5305 1309,5260 1337,5218 1322,5182 1318,5146 1323,5110 1352,5138 1383,5142 1418,5124 1442,5059 1487,5018 1553,5002 1365,5276 1172,5546 972,5813 756,6116 716,6440 851,6785 808,6773 777,6746 756,6704 739,6460 743,6217 770,5975 826,5973 867,5946 891,5894 932,5808 972,5722 1013,5637 889,5360 794,5373 729,5677 702,5700 670,5709 635,5704 584,5834 530,5965 473,6096 464,6124 446,6137 419,6137 605,5664 866,5241 1202,4867 L 1202,4867 Z "/>
         <path fill="rgb(165,32,36)" stroke="none" d="M 21295,4705 C 21945,5358 21976,6043 21389,6758 21212,6912 21018,7042 20808,7149 20613,7379 20545,7645 20606,7946 20657,8174 20738,8390 20849,8594 21063,8926 21289,9250 21524,9567 21616,9714 21692,9867 21754,10026 21803,10097 21835,10178 21848,10269 21857,10395 21861,10516 21862,10633 21781,10898 21655,11137 21484,11349 21439,11343 21399,11352 21362,11376 21386,11327 21395,11273 21389,11214 21371,11250 21353,11250 21335,11214 21327,11248 21313,11280 21295,11309 21237,11334 21183,11366 21133,11403 21109,11381 21100,11354 21106,11322 21170,11325 21220,11298 21254,11241 21276,11162 21312,11090 21362,11025 21375,10981 21380,10936 21376,10890 21495,10645 21508,10392 21416,10134 21397,10077 21366,10032 21322,9999 21326,9970 21321,9943 21308,9918 21075,9568 20832,9226 20579,8891 20454,8678 20360,8453 20295,8216 20247,7959 20229,7698 20241,7433 20287,7384 20310,7321 20309,7244 20385,7182 20426,7101 20430,7001 20497,6921 20569,6844 20646,6771 20952,6650 21186,6447 21349,6164 21290,6423 21344,6441 21511,6218 21530,6288 21530,6360 21511,6434 21542,6440 21569,6431 21592,6407 21626,6331 21626,6254 21592,6177 21605,5910 21632,5644 21673,5380 21669,5243 21647,5243 21605,5380 21592,5345 21587,5309 21592,5272 21565,5272 21538,5272 21511,5272 21510,5207 21496,5144 21470,5083 21418,4992 21350,4915 21268,4854 21298,4847 21325,4834 21349,4813 21318,4783 21300,4747 21295,4705 L 21295,4705 Z "/>
         <path fill="rgb(149,49,51)" stroke="none" d="M 20430,7001 C 20426,7101 20385,7182 20309,7244 20310,7321 20287,7384 20241,7433 20256,7266 20319,7122 20430,7001 L 20430,7001 Z "/>
         <path fill="rgb(149,49,50)" stroke="none" d="M 1013,7001 C 1157,7150 1310,7294 1472,7433 1436,7433 1400,7433 1364,7433 1364,7406 1364,7379 1364,7352 1312,7346 1267,7323 1229,7284 1179,7216 1121,7157 1053,7109 1032,7075 1018,7039 1013,7001 L 1013,7001 Z "/>
         <path fill="rgb(167,29,34)" stroke="none" d="M 851,6785 C 905,6857 959,6929 1013,7001 1018,7039 1032,7075 1053,7109 1121,7157 1179,7216 1229,7284 1267,7323 1312,7346 1364,7352 1364,7379 1364,7406 1364,7433 1400,7433 1436,7433 1472,7433 1649,7556 1775,7718 1850,7919 1898,8114 1911,8312 1890,8513 1882,8535 1869,8553 1850,8567 1828,8479 1814,8389 1809,8297 1790,8462 1758,8624 1715,8783 1729,8817 1747,8848 1769,8878 1723,8967 1696,9062 1688,9161 1679,9161 1670,9161 1661,9161 1616,9200 1562,9223 1499,9229 1514,9271 1496,9307 1445,9337 1473,9378 1468,9418 1431,9459 1412,9419 1381,9401 1337,9405 1337,9432 1337,9459 1337,9486 1211,9499 1175,9449 1229,9337 1254,9324 1281,9319 1310,9324 1292,9270 1274,9215 1256,9161 1393,9050 1474,8906 1499,8729 1538,8719 1560,8692 1566,8648 1604,8488 1613,8326 1593,8162 1545,8065 1505,7966 1472,7865 1409,7829 1346,7793 1283,7757 1140,7646 1000,7529 864,7406 737,7270 620,7126 513,6974 394,6704 363,6425 419,6137 446,6137 464,6124 473,6096 530,5965 584,5834 635,5704 670,5709 702,5700 729,5677 794,5373 889,5360 1013,5637 972,5722 932,5808 891,5894 867,5946 826,5973 770,5975 743,6217 739,6460 756,6704 777,6746 808,6773 851,6785 L 851,6785 Z "/>
         <path fill="rgb(156,65,63)" stroke="none" d="M 20241,7433 C 20229,7698 20247,7959 20295,8216 20271,8175 20248,8130 20228,8081 20192,7875 20183,7668 20201,7460 20211,7445 20225,7436 20241,7433 L 20241,7433 Z "/>
         <path fill="rgb(149,47,52)" stroke="none" d="M 1283,7757 C 1346,7793 1409,7829 1472,7865 1505,7966 1545,8065 1593,8162 1613,8326 1604,8488 1566,8648 1560,8692 1538,8719 1499,8729 1539,8587 1562,8443 1566,8297 1547,8183 1511,8075 1458,7973 1383,7912 1325,7840 1283,7757 L 1283,7757 Z "/>
         <path fill="rgb(158,39,41)" stroke="none" d="M 1850,7919 C 1892,7951 1915,7996 1917,8054 1984,8456 1907,8826 1688,9161 1696,9062 1723,8967 1769,8878 1747,8848 1729,8817 1715,8783 1758,8624 1790,8462 1809,8297 1814,8389 1828,8479 1850,8567 1869,8553 1882,8535 1890,8513 1911,8312 1898,8114 1850,7919 L 1850,7919 Z "/>
         <path fill="rgb(151,43,48)" stroke="none" d="M 1499,8729 C 1474,8906 1393,9050 1256,9161 1337,9017 1418,8873 1499,8729 L 1499,8729 Z "/>
         <path fill="rgb(162,35,40)" stroke="none" d="M 1256,9161 C 1274,9215 1292,9270 1310,9324 1281,9319 1254,9324 1229,9337 1175,9449 1211,9499 1337,9486 1337,9459 1337,9432 1337,9405 1381,9401 1412,9419 1431,9459 1468,9418 1473,9378 1445,9337 1496,9307 1514,9271 1499,9229 1562,9223 1616,9200 1661,9161 1557,9365 1431,9554 1283,9729 1277,9684 1286,9644 1310,9607 1281,9594 1254,9598 1229,9621 1212,9559 1176,9514 1121,9486 1096,9518 1087,9554 1094,9594 987,9585 965,9621 1026,9702 1113,9694 1117,9726 1040,9796 981,9771 918,9748 851,9729 850,9883 778,9982 635,10026 822,9722 1029,9434 1256,9161 L 1256,9161 Z "/>
         <path fill="rgb(147,49,51)" stroke="none" d="M 1283,9729 C 1168,9911 1046,10091 918,10269 873,10345 842,10426 824,10512 806,10539 788,10566 770,10593 768,10518 781,10446 810,10377 923,10160 1054,9953 1202,9756 1224,9732 1251,9723 1283,9729 L 1283,9729 Z "/>
         <path fill="rgb(166,30,34)" stroke="none" d="M 1283,9729 C 1251,9723 1224,9732 1202,9756 1054,9953 923,10160 810,10377 781,10446 768,10518 770,10593 765,10692 770,10791 783,10890 793,10944 816,10989 851,11025 876,11112 917,11193 972,11268 1136,11436 1302,11598 1472,11754 1388,11743 1316,11707 1256,11646 1231,11678 1222,11714 1229,11754 1269,11747 1305,11756 1337,11781 1380,11865 1438,11937 1512,11997 1525,12023 1530,12050 1526,12078 1490,12078 1454,12078 1418,12078 1418,12114 1418,12150 1418,12186 1500,12205 1545,12259 1553,12348 1212,12057 892,11742 594,11403 427,11110 373,10795 432,10458 466,10295 534,10151 635,10026 778,9982 850,9883 851,9729 918,9748 981,9771 1040,9796 1117,9726 1113,9694 1026,9702 965,9621 987,9585 1094,9594 1087,9554 1096,9518 1121,9486 1176,9514 1212,9559 1229,9621 1254,9598 1281,9594 1310,9607 1286,9644 1277,9684 1283,9729 L 1283,9729 Z "/>
         <path fill="rgb(251,228,223)" stroke="none" d="M 21322,9999 C 21366,10032 21397,10077 21416,10134 21508,10392 21495,10645 21376,10890 21281,11044 21173,11188 21051,11322 21056,11258 21065,11195 21079,11133 21106,11133 21133,11133 21160,11133 21160,11088 21160,11043 21160,10998 21211,11003 21251,10985 21281,10944 21396,10715 21432,10472 21389,10215 21363,10186 21341,10154 21322,10120 21323,10077 21323,10036 21322,9999 L 21322,9999 Z "/>
         <path fill="rgb(174,25,30)" stroke="none" d="M 21754,10026 C 21817,10315 21808,10604 21727,10890 21700,10890 21673,10890 21646,10890 21637,10759 21664,10638 21727,10525 21692,10285 21620,10060 21511,9850 21524,9819 21547,9796 21578,9783 21631,9846 21672,9919 21700,9999 21712,10020 21730,10029 21754,10026 L 21754,10026 Z "/>
         <path fill="rgb(244,208,203)" stroke="none" d="M 824,10512 C 821,10684 830,10855 851,11025 816,10989 793,10944 783,10890 770,10791 765,10692 770,10593 788,10566 806,10539 824,10512 L 824,10512 Z "/>
         <path fill="rgb(161,39,43)" stroke="none" d="M 21376,10890 C 21380,10936 21375,10981 21362,11025 21312,11090 21276,11162 21254,11241 21220,11298 21170,11325 21106,11322 21100,11354 21109,11381 21133,11403 21183,11366 21237,11334 21295,11309 21313,11280 21327,11248 21335,11214 21353,11250 21371,11250 21389,11214 21395,11273 21386,11327 21362,11376 21399,11352 21439,11343 21484,11349 21232,11628 20980,11907 20727,12186 20748,12080 20788,11981 20849,11889 20991,11815 21112,11716 21214,11592 21151,11538 21087,11484 21024,11430 20966,11561 20867,11642 20727,11673 20841,11562 20949,11445 21051,11322 21173,11188 21281,11044 21376,10890 L 21376,10890 Z "/>
         <path fill="rgb(170,27,32)" stroke="none" d="M 20727,12186 C 20700,12186 20673,12186 20646,12186 20648,12243 20621,12279 20565,12294 20540,12262 20531,12226 20538,12186 20502,12186 20466,12186 20430,12186 20421,12129 20443,12093 20498,12078 20541,12116 20590,12134 20646,12132 20644,12061 20617,12003 20565,11957 20646,11889 20700,11804 20727,11700 20727,11691 20727,11682 20727,11673 20867,11642 20966,11561 21024,11430 21087,11484 21151,11538 21214,11592 21112,11716 20991,11815 20849,11889 20788,11981 20748,12080 20727,12186 L 20727,12186 Z "/>
         <path fill="rgb(159,38,41)" stroke="none" d="M 20727,11700 C 20700,11804 20646,11889 20565,11957 20617,12003 20644,12061 20646,12132 20590,12134 20541,12116 20498,12078 20443,12093 20421,12129 20430,12186 20466,12186 20502,12186 20538,12186 20531,12226 20540,12262 20565,12294 20621,12279 20648,12243 20646,12186 20673,12186 20700,12186 20727,12186 20496,12513 20419,12873 20498,13267 20575,13420 20651,13573 20727,13726 20691,13739 20664,13766 20646,13807 20631,13747 20631,13684 20646,13618 20556,13628 20529,13597 20565,13523 20550,13423 20496,13364 20403,13348 20398,13104 20407,12861 20430,12618 20403,12618 20376,12618 20349,12618 20349,12573 20349,12528 20349,12483 20489,12510 20539,12456 20498,12321 20462,12303 20435,12276 20417,12240 20381,12294 20345,12348 20309,12402 20300,12384 20291,12366 20282,12348 20252,12388 20234,12433 20228,12483 20210,12504 20187,12513 20160,12510 20286,12196 20475,11926 20727,11700 L 20727,11700 Z "/>
         <path fill="rgb(170,27,31)" stroke="none" d="M 1472,11754 C 1476,11857 1530,11920 1634,11943 1687,12011 1745,12074 1809,12132 1836,12213 1863,12294 1890,12375 1899,12357 1908,12339 1917,12321 2019,12393 2069,12492 2066,12618 2039,12618 2012,12618 1985,12618 1949,12834 1913,13050 1877,13267 1846,13091 1846,12916 1877,12740 1868,12699 1859,12659 1850,12618 1830,12642 1816,12669 1809,12699 1789,12629 1793,12562 1823,12497 1771,12475 1717,12461 1661,12456 1661,12385 1625,12349 1553,12348 1545,12259 1500,12205 1418,12186 1418,12150 1418,12114 1418,12078 1454,12078 1490,12078 1526,12078 1530,12050 1525,12023 1512,11997 1438,11937 1380,11865 1337,11781 1305,11756 1269,11747 1229,11754 1222,11714 1231,11678 1256,11646 1316,11707 1388,11743 1472,11754 L 1472,11754 Z "/>
         <path fill="rgb(163,33,37)" stroke="none" d="M 1472,11754 C 1831,12001 2070,12334 2188,12754 2221,13297 2063,13774 1715,14185 1711,14086 1729,13991 1769,13901 1733,13830 1710,13754 1701,13672 1664,13788 1615,13896 1553,13996 1471,14059 1381,14113 1283,14158 1533,13866 1709,13533 1809,13159 1855,12846 1770,12576 1553,12348 1625,12349 1661,12385 1661,12456 1717,12461 1771,12475 1823,12497 1793,12562 1789,12629 1809,12699 1816,12669 1830,12642 1850,12618 1859,12659 1868,12699 1877,12740 1846,12916 1846,13091 1877,13267 1913,13050 1949,12834 1985,12618 2012,12618 2039,12618 2066,12618 2069,12492 2019,12393 1917,12321 1908,12339 1899,12357 1890,12375 1863,12294 1836,12213 1809,12132 1745,12074 1687,12011 1634,11943 1530,11920 1476,11857 1472,11754 L 1472,11754 Z "/>
         <path fill="rgb(168,30,35)" stroke="none" d="M 20727,13726 C 20760,13814 20792,13904 20822,13996 20865,14033 20914,14051 20970,14050 21025,14194 20980,14239 20835,14185 20794,14120 20740,14066 20673,14023 20665,13961 20638,13952 20592,13996 20567,14008 20544,14026 20525,14050 20453,13942 20381,13834 20309,13726 20253,13632 20212,13533 20187,13429 20162,13277 20144,13124 20133,12970 20146,12826 20155,12682 20160,12537 20160,12528 20160,12519 20160,12510 20187,12513 20210,12504 20228,12483 20234,12433 20252,12388 20282,12348 20291,12366 20300,12384 20309,12402 20345,12348 20381,12294 20417,12240 20435,12276 20462,12303 20498,12321 20539,12456 20489,12510 20349,12483 20349,12528 20349,12573 20349,12618 20376,12618 20403,12618 20430,12618 20407,12861 20398,13104 20403,13348 20496,13364 20550,13423 20565,13523 20529,13597 20556,13628 20646,13618 20631,13684 20631,13747 20646,13807 20664,13766 20691,13739 20727,13726 L 20727,13726 Z "/>
         <path fill="rgb(162,49,54)" stroke="none" d="M 20160,12537 C 20155,12682 20146,12826 20133,12970 20144,13124 20162,13277 20187,13429 20113,13265 20077,13089 20079,12902 20069,12769 20096,12647 20160,12537 L 20160,12537 Z "/>
         <path fill="rgb(207,140,138)" stroke="none" d="M 20673,14023 C 20643,14086 20616,14077 20592,13996 20638,13952 20665,13961 20673,14023 L 20673,14023 Z "/>
         <path fill="rgb(161,38,41)" stroke="none" d="M 20727,13726 C 20961,14000 21190,14279 21416,14563 21507,14691 21583,14826 21646,14968 21602,14954 21557,14945 21511,14941 21537,14812 21497,14713 21389,14644 21359,14685 21336,14730 21322,14779 21171,14574 21009,14376 20835,14185 20980,14239 21025,14194 20970,14050 20914,14051 20865,14033 20822,13996 20792,13904 20760,13814 20727,13726 L 20727,13726 Z "/>
         <path fill="rgb(170,26,30)" stroke="none" d="M 1715,14185 C 1670,14185 1625,14185 1580,14185 1549,14312 1495,14434 1418,14550 1359,14574 1305,14606 1256,14644 1220,14581 1220,14518 1256,14455 1276,14479 1290,14506 1296,14536 1334,14478 1357,14415 1364,14347 1414,14348 1450,14326 1472,14279 1455,14256 1433,14242 1404,14239 1258,14398 1217,14371 1283,14158 1381,14113 1471,14059 1553,13996 1615,13896 1664,13788 1701,13672 1710,13754 1733,13830 1769,13901 1729,13991 1711,14086 1715,14185 L 1715,14185 Z "/>
         <path fill="rgb(160,34,37)" stroke="none" d="M 1283,14158 C 1217,14371 1258,14398 1404,14239 1433,14242 1455,14256 1472,14279 1450,14326 1414,14348 1364,14347 1357,14415 1334,14478 1296,14536 1290,14506 1276,14479 1256,14455 1220,14518 1220,14581 1256,14644 1305,14606 1359,14574 1418,14550 1495,14434 1549,14312 1580,14185 1625,14185 1670,14185 1715,14185 1485,14519 1269,14861 1067,15211 1114,15066 1159,14917 1202,14766 1186,14694 1159,14626 1121,14563 1096,14546 1069,14537 1040,14536 1108,14402 1189,14276 1283,14158 L 1283,14158 Z "/>
         <path fill="rgb(163,52,53)" stroke="none" d="M 21646,14968 C 21793,15206 21843,15467 21794,15751 21787,15776 21773,15794 21754,15805 21755,15719 21764,15634 21781,15549 21781,15484 21763,15426 21727,15373 21663,15400 21636,15373 21646,15292 21656,15248 21674,15208 21700,15171 21663,15108 21645,15041 21646,14968 L 21646,14968 Z "/>
         <path fill="rgb(151,48,51)" stroke="none" d="M 1067,15211 C 956,15602 1028,15953 1283,16265 1224,16255 1174,16228 1134,16183 1102,16070 1057,15962 999,15859 981,15706 981,15553 999,15400 998,15323 1021,15260 1067,15211 L 1067,15211 Z "/>
         <path fill="rgb(169,30,34)" stroke="none" d="M 1040,14536 C 1069,14537 1096,14546 1121,14563 1159,14626 1186,14694 1202,14766 1159,14917 1114,15066 1067,15211 1021,15260 998,15323 999,15400 981,15553 981,15706 999,15859 1057,15962 1102,16070 1134,16183 1174,16228 1224,16255 1283,16265 1301,16274 1319,16283 1337,16292 1352,16366 1388,16429 1445,16481 1393,16495 1339,16500 1283,16494 1359,16579 1445,16656 1539,16724 1553,16759 1557,16795 1553,16832 1491,16829 1437,16806 1391,16764 1313,16673 1223,16597 1121,16535 1056,16395 984,16260 905,16129 871,16150 835,16159 797,16156 802,16111 784,16084 743,16075 705,16009 674,15937 648,15859 584,15355 714,14914 1040,14536 L 1040,14536 Z "/>
         <path fill="rgb(168,28,32)" stroke="none" d="M 21646,14968 C 21645,15041 21663,15108 21700,15171 21674,15208 21656,15248 21646,15292 21636,15373 21663,15400 21727,15373 21763,15426 21781,15484 21781,15549 21764,15634 21755,15719 21754,15805 21745,15911 21709,16001 21646,16075 21600,16094 21582,16130 21592,16183 21565,16183 21538,16183 21511,16183 21515,16089 21524,15994 21538,15900 21527,15835 21509,15772 21484,15711 21531,15510 21545,15308 21524,15103 21490,14991 21450,14883 21403,14779 21376,14779 21349,14779 21322,14779 21336,14730 21359,14685 21389,14644 21497,14713 21537,14812 21511,14941 21557,14945 21602,14954 21646,14968 L 21646,14968 Z "/>
         <path fill="rgb(156,37,39)" stroke="none" d="M 21322,14779 C 21349,14779 21376,14779 21403,14779 21450,14883 21490,14991 21524,15103 21545,15308 21531,15510 21484,15711 21509,15772 21527,15835 21538,15900 21524,15994 21515,16089 21511,16183 21538,16183 21565,16183 21592,16183 21582,16130 21600,16094 21646,16075 21581,16266 21482,16437 21349,16589 21340,16523 21349,16460 21376,16400 21430,16377 21457,16336 21457,16278 21386,16158 21386,16037 21457,15913 21448,15895 21439,15877 21430,15859 21319,15992 21269,16145 21281,16319 21244,16295 21204,16286 21160,16292 21144,16373 21117,16449 21079,16521 21110,16577 21106,16626 21065,16670 21054,16613 21022,16590 20970,16602 20912,16685 20845,16761 20768,16832 20759,16877 20750,16922 20741,16967 20734,16936 20721,16909 20700,16886 20680,16916 20653,16934 20619,16940 20835,16665 21047,16386 21254,16102 21544,15669 21566,15228 21322,14779 L 21322,14779 Z "/>
         <path fill="rgb(161,35,38)" stroke="none" d="M 743,16075 C 784,16084 802,16111 797,16156 835,16159 871,16150 905,16129 984,16260 1056,16395 1121,16535 1223,16597 1313,16673 1391,16764 1437,16806 1491,16829 1553,16832 1557,16795 1553,16759 1539,16724 1445,16656 1359,16579 1283,16494 1339,16500 1393,16495 1445,16481 1388,16429 1352,16366 1337,16292 1568,16518 1806,16743 2052,16967 2122,17042 2185,17123 2242,17210 2272,17261 2294,17315 2309,17372 2247,17332 2198,17278 2161,17210 2154,17317 2118,17335 2052,17264 2008,17217 1977,17163 1958,17102 1963,17060 1972,17020 1985,16980 1923,16882 1838,16815 1728,16778 1715,16813 1711,16849 1715,16886 1805,16886 1850,16931 1850,17021 1805,17021 1760,17021 1715,17021 1715,17048 1715,17075 1715,17102 1438,16883 1172,16649 918,16400 842,16301 783,16193 743,16075 L 743,16075 Z "/>
         <path fill="rgb(172,25,32)" stroke="none" d="M 21349,16589 C 21340,16589 21331,16589 21322,16589 21276,16595 21236,16613 21200,16643 21194,16694 21176,16739 21146,16778 21119,16742 21092,16742 21065,16778 21056,16751 21047,16724 21038,16697 20932,16715 20892,16778 20916,16886 20960,16889 20992,16871 21011,16832 21034,16848 21048,16871 21051,16899 20989,16956 20944,17024 20916,17102 20864,17109 20823,17091 20795,17048 20782,17073 20777,17100 20781,17129 20754,17129 20727,17129 20700,17129 20686,17060 20659,16997 20619,16940 20653,16934 20680,16916 20700,16886 20721,16909 20734,16936 20741,16967 20750,16922 20759,16877 20768,16832 20845,16761 20912,16685 20970,16602 21022,16590 21054,16613 21065,16670 21106,16626 21110,16577 21079,16521 21117,16449 21144,16373 21160,16292 21204,16286 21244,16295 21281,16319 21269,16145 21319,15992 21430,15859 21439,15877 21448,15895 21457,15913 21386,16037 21386,16158 21457,16278 21457,16336 21430,16377 21376,16400 21349,16460 21340,16523 21349,16589 L 21349,16589 Z "/>
         <path fill="rgb(171,25,32)" stroke="none" d="M 2309,17372 C 2304,17524 2331,17668 2390,17804 2397,17924 2366,18032 2296,18128 2291,18069 2269,18020 2228,17980 2281,17882 2294,17779 2269,17669 2251,17633 2233,17633 2215,17669 2206,17813 2197,17957 2188,18101 2179,18119 2170,18137 2161,18155 2152,18119 2143,18083 2134,18047 2132,18210 2127,18372 2120,18533 2106,18461 2070,18407 2012,18371 2017,18250 2040,18133 2079,18020 2097,17885 2097,17750 2079,17615 2028,17520 1983,17421 1944,17318 1922,17282 1891,17264 1850,17264 1805,17210 1760,17156 1715,17102 1715,17075 1715,17048 1715,17021 1760,17021 1805,17021 1850,17021 1850,16931 1805,16886 1715,16886 1711,16849 1715,16813 1728,16778 1838,16815 1923,16882 1985,16980 1972,17020 1963,17060 1958,17102 1977,17163 2008,17217 2052,17264 2118,17335 2154,17317 2161,17210 2198,17278 2247,17332 2309,17372 L 2309,17372 Z "/>
         <path fill="rgb(166,29,34)" stroke="none" d="M 21322,16589 C 21140,16842 20969,17103 20808,17372 20773,17412 20742,17457 20714,17507 20703,17616 20671,17715 20619,17804 20602,17848 20593,17898 20592,17952 20605,18092 20619,18232 20633,18371 20653,18413 20685,18440 20727,18452 20727,18470 20727,18488 20727,18506 20733,18585 20751,18662 20781,18736 20735,18862 20704,18993 20687,19127 20659,19098 20646,19062 20646,19019 20657,18973 20662,18928 20660,18884 20632,18912 20600,18916 20565,18898 20548,18804 20503,18727 20430,18668 20331,18523 20277,18361 20268,18182 20267,18001 20276,17821 20295,17642 20298,17539 20321,17440 20363,17345 20436,17199 20521,17064 20619,16940 20659,16997 20686,17060 20700,17129 20727,17129 20754,17129 20781,17129 20777,17100 20782,17073 20795,17048 20823,17091 20864,17109 20916,17102 20944,17024 20989,16956 21051,16899 21048,16871 21034,16848 21011,16832 20992,16871 20960,16889 20916,16886 20892,16778 20932,16715 21038,16697 21047,16724 21056,16751 21065,16778 21092,16742 21119,16742 21146,16778 21176,16739 21194,16694 21200,16643 21236,16613 21276,16595 21322,16589 L 21322,16589 Z "/>
         <path fill="rgb(173,89,93)" stroke="none" d="M 20295,17642 C 20276,17821 20267,18001 20268,18182 20250,18115 20241,18043 20241,17966 20237,17850 20255,17742 20295,17642 L 20295,17642 Z "/>
         <path fill="rgb(246,212,210)" stroke="none" d="M 20808,17372 C 20850,17444 20832,17498 20754,17534 20692,17763 20665,17997 20673,18236 20631,18099 20613,17955 20619,17804 20671,17715 20703,17616 20714,17507 20742,17457 20773,17412 20808,17372 L 20808,17372 Z "/>
         <path fill="rgb(152,50,53)" stroke="none" d="M 20619,17804 C 20613,17955 20631,18099 20673,18236 20676,18312 20694,18384 20727,18452 20685,18440 20653,18413 20633,18371 20619,18232 20605,18092 20592,17952 20593,17898 20602,17848 20619,17804 L 20619,17804 Z "/>
         <path fill="rgb(158,43,47)" stroke="none" d="M 1850,17264 C 1891,17264 1922,17282 1944,17318 1983,17421 2028,17520 2079,17615 2097,17750 2097,17885 2079,18020 2040,18133 2017,18250 2012,18371 1994,18414 1981,18459 1971,18506 1874,18550 1789,18604 1715,18668 2087,18229 2132,17761 1850,17264 L 1850,17264 Z "/>
         <path fill="rgb(165,30,35)" stroke="none" d="M 2309,17372 C 2399,17509 2435,17662 2417,17831 2396,18279 2234,18666 1931,18992 1891,18999 1855,18990 1823,18965 1796,18925 1765,18889 1728,18857 1699,19041 1596,19149 1418,19181 1418,19154 1418,19127 1418,19100 1500,19080 1545,19026 1553,18938 1641,18879 1695,18798 1715,18695 1715,18686 1715,18677 1715,18668 1789,18604 1874,18550 1971,18506 1981,18459 1994,18414 2012,18371 2070,18407 2106,18461 2120,18533 2127,18372 2132,18210 2134,18047 2143,18083 2152,18119 2161,18155 2170,18137 2179,18119 2188,18101 2197,17957 2206,17813 2215,17669 2233,17633 2251,17633 2269,17669 2294,17779 2281,17882 2228,17980 2269,18020 2291,18069 2296,18128 2366,18032 2397,17924 2390,17804 2331,17668 2304,17524 2309,17372 L 2309,17372 Z "/>
         <path fill="rgb(155,57,57)" stroke="none" d="M 1715,18695 C 1695,18798 1641,18879 1553,18938 1545,19026 1500,19080 1418,19100 1414,19072 1418,19045 1431,19019 1522,18906 1617,18798 1715,18695 L 1715,18695 Z "/>
         <path fill="rgb(159,37,39)" stroke="none" d="M 20727,18506 C 20864,18771 21008,19032 21160,19289 21108,19304 21063,19331 21024,19370 21009,19365 20995,19356 20984,19343 21009,19267 21023,19186 21024,19100 20920,19071 20870,18999 20876,18884 20849,18866 20822,18848 20795,18830 20777,18902 20777,18974 20795,19046 20823,19090 20864,19108 20916,19100 20913,19167 20886,19221 20835,19262 20863,19353 20890,19443 20916,19532 20699,19278 20537,18990 20430,18668 20503,18727 20548,18804 20565,18898 20600,18916 20632,18912 20660,18884 20662,18928 20657,18973 20646,19019 20646,19062 20659,19098 20687,19127 20704,18993 20735,18862 20781,18736 20751,18662 20733,18585 20727,18506 L 20727,18506 Z "/>
         <path fill="rgb(162,38,40)" stroke="none" d="M 1931,18992 C 1868,19091 1796,19181 1715,19262 1536,19491 1352,19716 1161,19938 1060,20084 970,20237 891,20397 855,20593 841,20791 851,20991 841,21088 859,21179 905,21261 878,21261 851,21261 824,21261 833,21138 815,21021 770,20910 809,20703 818,20496 797,20289 716,20282 680,20237 689,20154 700,20086 718,20023 743,19965 754,20059 781,20149 824,20235 861,20195 906,20168 959,20154 984,20122 993,20086 986,20046 1013,20046 1040,20046 1067,20046 1102,19938 1147,19834 1202,19735 1151,19693 1111,19644 1080,19586 1041,19645 991,19694 932,19735 965,19774 965,19815 932,19857 859,19869 805,19905 770,19965 804,19897 831,19825 851,19749 987,19557 1131,19368 1283,19181 1316,19132 1361,19105 1418,19100 1418,19127 1418,19154 1418,19181 1596,19149 1699,19041 1728,18857 1765,18889 1796,18925 1823,18965 1855,18990 1891,18999 1931,18992 L 1931,18992 Z "/>
         <path fill="rgb(169,26,30)" stroke="none" d="M 1715,19262 C 1590,19342 1464,19423 1337,19505 1359,19548 1368,19593 1364,19640 1301,19647 1247,19629 1202,19586 1226,19582 1253,19573 1283,19559 1256,19541 1229,19523 1202,19505 1256,19424 1283,19334 1283,19235 1333,19234 1369,19257 1391,19303 1418,19321 1445,19321 1472,19303 1585,19230 1675,19136 1742,19019 1774,19031 1801,19049 1823,19073 1763,19124 1727,19187 1715,19262 L 1715,19262 Z "/>
         <path fill="rgb(160,38,40)" stroke="none" d="M 21160,19289 C 21324,19500 21468,19726 21592,19965 21527,19967 21477,19940 21443,19884 21399,19818 21359,19751 21322,19681 21243,19662 21171,19631 21106,19586 21092,19561 21083,19534 21079,19505 21133,19446 21160,19374 21160,19289 L 21160,19289 Z "/>
         <path fill="rgb(171,25,30)" stroke="none" d="M 743,19965 C 752,19965 761,19965 770,19965 805,19905 859,19869 932,19857 965,19815 965,19774 932,19735 991,19694 1041,19645 1080,19586 1111,19644 1151,19693 1202,19735 1147,19834 1102,19938 1067,20046 1040,20046 1013,20046 986,20046 993,20086 984,20122 959,20154 906,20168 861,20195 824,20235 781,20149 754,20059 743,19965 L 743,19965 Z "/>
         <path fill="rgb(154,41,44)" stroke="none" d="M 20916,19532 C 21006,19625 21087,19728 21160,19843 21232,19858 21304,19872 21376,19884 21376,19911 21376,19938 21376,19965 21344,19959 21317,19968 21295,19992 21329,20093 21378,20183 21443,20262 21488,20445 21519,20629 21538,20815 21536,20906 21527,20996 21511,21085 21459,21150 21405,21208 21349,21261 21548,20967 21561,20661 21389,20343 21225,20075 21067,19805 20916,19532 L 20916,19532 Z "/>
         <path fill="rgb(154,51,56)" stroke="none" d="M 851,19749 C 831,19825 804,19897 770,19965 761,19965 752,19965 743,19965 718,20023 700,20086 689,20154 655,20156 632,20174 621,20208 573,20311 537,20419 513,20532 497,20748 501,20964 527,21180 434,20945 421,20702 486,20451 559,20188 680,19954 851,19749 L 851,19749 Z "/>
         <path fill="rgb(153,42,49)" stroke="none" d="M 21592,19965 C 21826,20285 21920,20645 21875,21045 21868,21070 21854,21088 21835,21099 21879,20785 21830,20488 21686,20208 21659,20190 21632,20172 21605,20154 21592,20091 21587,20028 21592,19965 L 21592,19965 Z "/>
         <path fill="rgb(169,27,33)" stroke="none" d="M 21160,19289 C 21160,19374 21133,19446 21079,19505 21083,19534 21092,19561 21106,19586 21171,19631 21243,19662 21322,19681 21359,19751 21399,19818 21443,19884 21477,19940 21527,19967 21592,19965 21587,20028 21592,20091 21605,20154 21632,20172 21659,20190 21686,20208 21830,20488 21879,20785 21835,21099 21832,21161 21814,21215 21781,21261 21741,21211 21705,21157 21673,21099 21658,21190 21649,21280 21646,21369 21547,21499 21443,21625 21335,21747 21322,21773 21318,21800 21322,21828 21250,21877 21178,21931 21106,21990 21063,21962 21018,21944 20970,21936 20969,21992 20987,22042 21024,22085 21002,22120 20975,22152 20943,22179 20928,22174 20914,22165 20903,22152 20890,22215 20885,22278 20889,22341 20738,22609 20688,22897 20741,23205 20766,23355 20807,23499 20862,23638 20859,23706 20877,23769 20916,23827 20889,23845 20862,23863 20835,23881 20879,23940 20915,24003 20943,24070 20948,24107 20943,24143 20930,24178 20878,24083 20820,23993 20754,23908 20721,23928 20685,23937 20646,23935 20652,23889 20634,23862 20592,23854 20489,23709 20426,23547 20403,23368 20364,23097 20368,22827 20417,22557 20435,22521 20453,22521 20471,22557 20513,22357 20598,22177 20727,22017 20769,21991 20814,21982 20862,21990 20858,21953 20863,21917 20876,21882 20984,21720 21110,21576 21254,21450 21300,21394 21332,21331 21349,21261 21405,21208 21459,21150 21511,21085 21527,20996 21536,20906 21538,20815 21519,20629 21488,20445 21443,20262 21378,20183 21329,20093 21295,19992 21317,19968 21344,19959 21376,19965 21376,19938 21376,19911 21376,19884 21304,19872 21232,19858 21160,19843 21087,19728 21006,19625 20916,19532 20890,19443 20863,19353 20835,19262 20886,19221 20913,19167 20916,19100 20864,19108 20823,19090 20795,19046 20777,18974 20777,18902 20795,18830 20822,18848 20849,18866 20876,18884 20870,18999 20920,19071 21024,19100 21023,19186 21009,19267 20984,19343 20995,19356 21009,19365 21024,19370 21063,19331 21108,19304 21160,19289 L 21160,19289 Z "/>
         <path fill="rgb(169,26,34)" stroke="none" d="M 689,20154 C 680,20237 716,20282 797,20289 818,20496 809,20703 770,20910 815,21021 833,21138 824,21261 851,21261 878,21261 905,21261 897,21312 915,21348 959,21369 966,21409 957,21445 932,21477 877,21329 841,21334 824,21491 860,21540 855,21554 810,21531 801,21567 792,21603 783,21639 699,21515 622,21389 554,21261 529,21242 520,21215 527,21180 501,20964 497,20748 513,20532 537,20419 573,20311 621,20208 632,20174 655,20156 689,20154 L 689,20154 Z "/>
         <path fill="rgb(150,55,58)" stroke="none" d="M 851,20991 C 909,21189 990,21378 1094,21558 1034,21505 989,21442 959,21369 915,21348 897,21312 905,21261 859,21179 841,21088 851,20991 L 851,20991 Z "/>
         <path fill="rgb(162,35,39)" stroke="none" d="M 554,21261 C 622,21389 699,21515 783,21639 792,21603 801,21567 810,21531 855,21554 860,21540 824,21491 841,21334 877,21329 932,21477 957,21445 966,21409 959,21369 989,21442 1034,21505 1094,21558 1194,21631 1275,21721 1337,21828 1280,21818 1226,21800 1175,21774 1136,21703 1086,21640 1026,21585 997,21615 966,21642 932,21666 955,21686 982,21700 1013,21707 948,21725 948,21752 1013,21788 991,21796 973,21809 959,21828 971,21855 989,21855 1013,21828 1017,21923 1062,21986 1148,22017 1178,22077 1196,22140 1202,22206 900,21949 684,21634 554,21261 L 554,21261 Z "/>
         <path fill="rgb(152,41,45)" stroke="none" d="M 21781,21261 C 21673,21486 21520,21675 21322,21828 21318,21800 21322,21773 21335,21747 21443,21625 21547,21499 21646,21369 21649,21280 21658,21190 21673,21099 21705,21157 21741,21211 21781,21261 L 21781,21261 Z "/>
         <path fill="rgb(157,43,44)" stroke="none" d="M 21322,21828 C 21177,22000 21033,22171 20889,22341 20885,22278 20890,22215 20903,22152 20914,22165 20928,22174 20943,22179 20975,22152 21002,22120 21024,22085 20987,22042 20969,21992 20970,21936 21018,21944 21063,21962 21106,21990 21178,21931 21250,21877 21322,21828 L 21322,21828 Z "/>
         <path fill="rgb(154,46,50)" stroke="none" d="M 21349,21261 C 21332,21331 21300,21394 21254,21450 21110,21576 20984,21720 20876,21882 20863,21917 20858,21953 20862,21990 20814,21982 20769,21991 20727,22017 20598,22177 20513,22357 20471,22557 20453,22521 20435,22521 20417,22557 20368,22827 20364,23097 20403,23368 20354,23231 20327,23087 20322,22935 20350,22546 20490,22204 20741,21909 20940,21688 21142,21472 21349,21261 L 21349,21261 Z "/>
         <path fill="rgb(246,229,223)" stroke="none" d="M 20970,24070 C 21011,24070 21043,24088 21065,24124 21207,24329 21360,24527 21524,24718 21640,24878 21726,25049 21781,25231 21807,25311 21811,25392 21794,25474 21751,25539 21724,25611 21713,25690 21694,25716 21671,25720 21646,25704 21676,25575 21681,25445 21659,25312 21525,24980 21345,24674 21119,24394 21057,24290 21007,24182 20970,24070 L 20970,24070 Z "/>
         <path fill="rgb(157,52,58)" stroke="none" d="M 20862,23638 C 21108,24068 21391,24473 21713,24853 21761,24940 21802,25030 21835,25123 21791,25144 21773,25180 21781,25231 21726,25049 21640,24878 21524,24718 21360,24527 21207,24329 21065,24124 21043,24088 21011,24070 20970,24070 20961,24070 20952,24070 20943,24070 20915,24003 20879,23940 20835,23881 20862,23863 20889,23845 20916,23827 20877,23769 20859,23706 20862,23638 L 20862,23638 Z "/>
         <path fill="rgb(156,54,56)" stroke="none" d="M 770,25150 C 671,25376 594,25610 540,25852 527,25951 522,26050 527,26149 470,25785 551,25452 770,25150 L 770,25150 Z "/>
         <path fill="rgb(146,50,50)" stroke="none" d="M 1175,25258 C 1071,25395 980,25539 905,25690 909,25606 927,25525 959,25447 1013,25402 1058,25348 1094,25285 1116,25261 1143,25252 1175,25258 L 1175,25258 Z "/>
         <path fill="rgb(166,30,35)" stroke="none" d="M 1337,21828 C 1658,22108 1968,22405 2269,22719 2487,22988 2568,23295 2512,23638 2479,23912 2357,24128 2147,24286 2151,24314 2147,24341 2134,24367 2047,24453 1962,24539 1877,24623 1630,24821 1396,25032 1175,25258 1143,25252 1116,25261 1094,25285 1058,25348 1013,25402 959,25447 927,25525 909,25606 905,25690 866,25871 870,26051 918,26230 1011,26471 1132,26696 1283,26906 1284,26962 1266,27011 1229,27054 1270,27102 1292,27089 1296,27014 1380,27101 1465,27182 1553,27257 1652,27352 1738,27460 1809,27581 2004,27911 2035,28253 1904,28607 1877,28607 1850,28607 1823,28607 1804,28711 1750,28734 1661,28675 1639,28639 1612,28608 1580,28580 1600,28547 1609,28511 1607,28472 1634,28472 1661,28472 1688,28472 1699,28279 1676,28090 1620,27905 1587,27841 1546,27787 1499,27743 1490,27743 1481,27743 1472,27743 1240,27451 1015,27154 797,26852 648,26640 558,26406 527,26149 522,26050 527,25951 540,25852 594,25610 671,25376 770,25150 880,25008 997,24868 1121,24731 1449,24484 1750,24210 2025,23908 2214,23550 2178,23217 1917,22908 1672,22677 1433,22442 1202,22206 1196,22140 1178,22077 1148,22017 1062,21986 1017,21923 1013,21828 989,21855 971,21855 959,21828 973,21809 991,21796 1013,21788 948,21752 948,21725 1013,21707 982,21700 955,21686 932,21666 966,21642 997,21615 1026,21585 1086,21640 1136,21703 1175,21774 1226,21800 1280,21818 1337,21828 L 1337,21828 Z "/>
         <path fill="rgb(160,40,42)" stroke="none" d="M 20592,23854 C 20634,23862 20652,23889 20646,23935 20685,23937 20721,23928 20754,23908 20820,23993 20878,24083 20930,24178 20943,24143 20948,24107 20943,24070 20952,24070 20961,24070 20970,24070 21007,24182 21057,24290 21119,24394 21345,24674 21525,24980 21659,25312 21681,25445 21676,25575 21646,25704 21671,25720 21694,25716 21713,25690 21724,25611 21751,25539 21794,25474 21811,25392 21807,25311 21781,25231 21773,25180 21791,25144 21835,25123 21964,25376 21978,25637 21875,25906 21847,25980 21807,26043 21754,26095 21760,26046 21769,25996 21781,25947 21773,25903 21751,25872 21713,25852 21708,25908 21694,25962 21673,26014 21618,25953 21573,25967 21538,26055 21568,26092 21581,26133 21578,26176 21528,26153 21470,26153 21403,26176 21325,26227 21289,26299 21295,26392 21225,26392 21162,26410 21106,26446 21266,26273 21423,26092 21578,25906 21618,25774 21627,25639 21605,25501 21555,25337 21483,25184 21389,25042 21201,24773 21003,24512 20795,24259 20709,24132 20641,23997 20592,23854 L 20592,23854 Z "/>
         <path fill="rgb(171,25,31)" stroke="none" d="M 21754,26095 C 21661,26136 21607,26208 21592,26311 21538,26302 21484,26293 21430,26284 21487,26394 21460,26475 21349,26527 21323,26560 21314,26596 21322,26635 21286,26635 21250,26635 21214,26635 21211,26503 21180,26494 21119,26608 21106,26555 21101,26501 21106,26446 21162,26410 21225,26392 21295,26392 21289,26299 21325,26227 21403,26176 21470,26153 21528,26153 21578,26176 21581,26133 21568,26092 21538,26055 21573,25967 21618,25953 21673,26014 21694,25962 21708,25908 21713,25852 21751,25872 21773,25903 21781,25947 21769,25996 21760,26046 21754,26095 L 21754,26095 Z "/>
         <path fill="rgb(150,47,49)" stroke="none" d="M 1283,26906 C 1372,27022 1462,27139 1553,27257 1465,27182 1380,27101 1296,27014 1292,27089 1270,27102 1229,27054 1266,27011 1284,26962 1283,26906 L 1283,26906 Z "/>
         <path fill="rgb(166,31,34)" stroke="none" d="M 21754,26095 C 21748,26134 21735,26170 21713,26203 21402,26539 21145,26908 20943,27311 20815,27452 20779,27618 20835,27810 20800,27930 20773,28052 20754,28175 20727,28175 20700,28175 20673,28175 20673,28166 20673,28157 20673,28148 20674,28041 20647,27942 20592,27851 20565,27672 20556,27492 20565,27311 20664,26968 20844,26680 21106,26446 21101,26501 21106,26555 21119,26608 21180,26494 21211,26503 21214,26635 21250,26635 21286,26635 21322,26635 21314,26596 21323,26560 21349,26527 21460,26475 21487,26394 21430,26284 21484,26293 21538,26302 21592,26311 21607,26208 21661,26136 21754,26095 L 21754,26095 Z "/>
         <path fill="rgb(152,50,53)" stroke="none" d="M 20565,27311 C 20556,27492 20565,27672 20592,27851 20647,27942 20674,28041 20673,28148 20536,27952 20482,27736 20511,27500 20517,27430 20535,27367 20565,27311 L 20565,27311 Z "/>
         <path fill="rgb(160,37,42)" stroke="none" d="M 20943,27311 C 20844,27651 20880,27975 21051,28283 21008,28232 20954,28196 20889,28175 20931,28267 20922,28352 20862,28431 20885,28480 20903,28530 20916,28580 20803,28466 20722,28331 20673,28175 20700,28175 20727,28175 20754,28175 20773,28052 20800,27930 20835,27810 20779,27618 20815,27452 20943,27311 L 20943,27311 Z "/>
         <path fill="rgb(249,226,222)" stroke="none" d="M 1472,27743 C 1481,27743 1490,27743 1499,27743 1646,28027 1641,28306 1485,28580 1463,28616 1432,28634 1391,28634 1406,28562 1447,28490 1512,28418 1532,28331 1554,28245 1580,28161 1524,28027 1488,27887 1472,27743 L 1472,27743 Z "/>
         <path fill="rgb(159,39,43)" stroke="none" d="M 1499,27743 C 1546,27787 1587,27841 1620,27905 1676,28090 1699,28279 1688,28472 1661,28472 1634,28472 1607,28472 1609,28511 1600,28547 1580,28580 1612,28608 1639,28639 1661,28675 1750,28734 1804,28711 1823,28607 1850,28607 1877,28607 1904,28607 1807,28767 1690,28911 1553,29039 1581,28988 1581,28939 1553,28891 1578,28880 1596,28862 1607,28837 1551,28689 1493,28684 1431,28823 1422,28805 1413,28787 1404,28769 1387,28868 1328,28917 1229,28918 1187,28964 1142,29004 1094,29039 1199,28909 1298,28774 1391,28634 1432,28634 1463,28616 1485,28580 1641,28306 1646,28027 1499,27743 L 1499,27743 Z "/>
         <path fill="rgb(169,28,32)" stroke="none" d="M 21051,28283 C 21145,28380 21226,28488 21295,28607 21308,28661 21321,28715 21335,28769 21475,28834 21489,28915 21376,29012 21440,29069 21445,29132 21389,29201 21322,29112 21282,29013 21268,28904 21232,28904 21196,28904 21160,28904 21120,28780 21048,28681 20943,28607 20925,28607 20916,28598 20916,28580 20903,28530 20885,28480 20862,28431 20922,28352 20931,28267 20889,28175 20954,28196 21008,28232 21051,28283 L 21051,28283 Z "/>
         <path fill="rgb(161,36,40)" stroke="none" d="M 20943,28607 C 21048,28681 21120,28780 21160,28904 21196,28904 21232,28904 21268,28904 21282,29013 21322,29112 21389,29201 21445,29132 21440,29069 21376,29012 21489,28915 21475,28834 21335,28769 21321,28715 21308,28661 21295,28607 21485,28829 21661,29063 21821,29309 21839,29363 21839,29417 21821,29471 21754,29534 21678,29579 21592,29606 21616,29528 21661,29465 21727,29417 21706,29347 21697,29275 21700,29201 21673,29201 21646,29201 21619,29201 21628,29419 21560,29446 21416,29282 21404,29361 21373,29423 21322,29471 21326,29372 21322,29273 21308,29174 21172,28993 21051,28804 20943,28607 L 20943,28607 Z "/>
         <path fill="rgb(170,27,30)" stroke="none" d="M 21592,29606 C 21599,29650 21590,29685 21565,29714 21524,29764 21470,29791 21403,29795 21420,29913 21379,30003 21281,30065 21306,29870 21320,29671 21322,29471 21373,29423 21404,29361 21416,29282 21560,29446 21628,29419 21619,29201 21646,29201 21673,29201 21700,29201 21697,29275 21706,29347 21727,29417 21661,29465 21616,29528 21592,29606 L 21592,29606 Z "/>
         <path fill="rgb(155,42,49)" stroke="none" d="M 1013,29147 C 950,29265 909,29391 891,29525 882,29534 873,29543 864,29552 858,29509 835,29482 797,29471 842,29344 914,29236 1013,29147 L 1013,29147 Z "/>
         <path fill="rgb(170,27,33)" stroke="none" d="M 1553,29039 C 1427,29188 1305,29341 1188,29498 1085,29670 999,29850 932,30038 897,30085 879,30144 878,30214 858,30382 907,30522 1026,30633 1040,30661 1035,30688 1013,30714 1097,30759 1187,30777 1283,30768 1283,30795 1283,30822 1283,30849 1427,30844 1571,30849 1715,30862 1737,30871 1755,30884 1769,30903 1581,30934 1391,30939 1202,30916 1101,30834 984,30793 851,30795 859,30720 850,30649 824,30579 727,30630 668,30603 648,30498 628,30407 606,30317 581,30228 582,30151 600,30079 635,30011 661,30118 670,30226 662,30336 689,30336 716,30336 743,30336 743,30192 743,30047 743,29903 716,29903 689,29903 662,29903 683,29798 724,29699 783,29606 797,29562 801,29517 797,29471 835,29482 858,29509 864,29552 873,29543 882,29534 891,29525 909,29391 950,29265 1013,29147 1019,29096 1046,29060 1094,29039 1142,29004 1187,28964 1229,28918 1328,28917 1387,28868 1404,28769 1413,28787 1422,28805 1431,28823 1493,28684 1551,28689 1607,28837 1596,28862 1578,28880 1553,28891 1581,28939 1581,28988 1553,29039 L 1553,29039 Z "/>
         <path fill="rgb(156,48,50)" stroke="none" d="M 14030,29660 C 13859,29642 13688,29637 13517,29647 13322,29691 13133,29749 12950,29822 13099,29725 13261,29649 13436,29593 13580,29575 13724,29575 13868,29593 13928,29608 13982,29631 14030,29660 L 14030,29660 Z "/>
         <path fill="rgb(174,92,92)" stroke="none" d="M 5118,29660 C 5171,29670 5189,29692 5172,29728 5242,29757 5242,29779 5172,29795 5129,29765 5083,29733 5037,29701 5062,29684 5085,29689 5104,29714 5117,29698 5121,29680 5118,29660 L 5118,29660 Z "/>
         <path fill="rgb(160,37,41)" stroke="none" d="M 10276,29903 C 10215,29892 10157,29874 10100,29849 10017,29860 10012,29887 10087,29930 10065,29954 10038,29963 10006,29957 10016,29892 9998,29873 9952,29903 9928,29881 9919,29854 9925,29822 9965,29829 10001,29821 10033,29795 10022,29762 10000,29744 9965,29741 9862,29763 9759,29781 9655,29795 9649,29827 9658,29854 9682,29876 9766,29900 9847,29927 9925,29957 9925,29984 9925,30011 9925,30038 9708,29906 9474,29861 9223,29903 9235,29877 9253,29855 9277,29836 9348,29822 9420,29818 9493,29822 9493,29786 9493,29750 9493,29714 9571,29724 9643,29711 9709,29674 9667,29649 9622,29636 9574,29633 9428,29655 9283,29682 9142,29714 9202,29699 9256,29667 9304,29620 9681,29547 10005,29642 10276,29903 L 10276,29903 Z "/>
         <path fill="rgb(119,91,90)" stroke="none" d="M 17838,29714 C 17894,29736 17885,29763 17811,29795 17785,29783 17785,29765 17811,29741 17829,29741 17838,29732 17838,29714 L 17838,29714 Z "/>
         <path fill="rgb(166,33,37)" stroke="none" d="M 5118,29660 C 5121,29680 5117,29698 5104,29714 5085,29689 5062,29684 5037,29701 5083,29733 5129,29765 5172,29795 5216,29885 5261,29975 5307,30065 5390,30121 5453,30193 5496,30282 5510,30325 5519,30370 5523,30417 5550,30417 5577,30417 5604,30417 5612,30482 5603,30545 5577,30606 5486,30542 5414,30461 5361,30363 5338,30339 5311,30330 5280,30336 5253,30338 5230,30329 5212,30309 5124,30086 4989,29897 4807,29741 4794,29716 4790,29689 4794,29660 4598,29596 4400,29591 4199,29647 3925,29777 3678,29943 3457,30146 3448,30138 3439,30128 3430,30119 3363,30168 3296,30213 3227,30255 3200,30255 3173,30255 3146,30255 3146,30282 3146,30309 3146,30336 3118,30331 3091,30336 3065,30349 3038,30391 3002,30423 2957,30444 2887,30423 2815,30414 2741,30417 2737,30380 2741,30343 2755,30309 2827,30268 2885,30214 2930,30146 3184,29907 3454,29686 3740,29485 4126,29237 4522,29219 4929,29431 4984,29515 5047,29591 5118,29660 L 5118,29660 Z "/>
         <path fill="rgb(168,29,32)" stroke="none" d="M 9223,29903 C 9162,29896 9108,29904 9061,29930 8978,29953 8897,29953 8818,29930 8896,29906 8968,29870 9034,29822 9058,29800 9067,29773 9061,29741 9080,29717 9107,29708 9142,29714 9283,29682 9428,29655 9574,29633 9622,29636 9667,29649 9709,29674 9643,29711 9571,29724 9493,29714 9493,29750 9493,29786 9493,29822 9420,29818 9348,29822 9277,29836 9253,29855 9235,29877 9223,29903 L 9223,29903 Z "/>
         <path fill="rgb(153,43,50)" stroke="none" d="M 19053,29822 C 18903,29819 18754,29801 18607,29768 18545,29771 18491,29789 18445,29822 18409,29799 18368,29790 18324,29795 18297,29800 18279,29791 18270,29768 18450,29681 18639,29672 18837,29741 18925,29719 18997,29746 19053,29822 L 19053,29822 Z "/>
         <path fill="rgb(234,199,191)" stroke="none" d="M 19053,29822 C 19054,29849 19040,29867 19013,29876 18977,29864 18941,29855 18904,29849 18867,29854 18845,29872 18837,29903 18784,29911 18744,29893 18715,29849 18704,29883 18682,29901 18648,29903 18648,29876 18648,29849 18648,29822 18594,29813 18558,29831 18540,29876 18464,29871 18392,29853 18324,29822 18324,29813 18324,29804 18324,29795 18368,29790 18409,29799 18445,29822 18491,29789 18545,29771 18607,29768 18754,29801 18903,29819 19053,29822 L 19053,29822 Z "/>
         <path fill="rgb(152,61,72)" stroke="none" d="M 18270,29768 C 18279,29791 18297,29800 18324,29795 18324,29804 18324,29813 18324,29822 18048,29923 17769,30062 17487,30241 17460,30259 17433,30259 17406,30241 17675,30048 17963,29890 18270,29768 L 18270,29768 Z "/>
         <path fill="rgb(138,54,62)" stroke="none" d="M 18648,29903 C 18609,29905 18573,29896 18540,29876 18558,29831 18594,29813 18648,29822 18648,29849 18648,29876 18648,29903 L 18648,29903 Z "/>
         <path fill="rgb(149,86,86)" stroke="none" d="M 17595,29930 C 17576,29906 17549,29897 17514,29903 17545,29881 17581,29863 17622,29849 17664,29823 17709,29819 17757,29836 17701,29865 17647,29896 17595,29930 L 17595,29930 Z "/>
         <path fill="rgb(160,43,45)" stroke="none" d="M 9061,29741 C 9067,29773 9058,29800 9034,29822 8968,29870 8896,29906 8818,29930 8897,29953 8978,29953 9061,29930 8845,30064 8629,30199 8412,30336 8378,30342 8351,30333 8331,30309 8376,30238 8430,30174 8494,30119 8661,29982 8850,29856 9061,29741 L 9061,29741 Z "/>
         <path fill="rgb(171,25,32)" stroke="none" d="M 10276,29903 C 10249,29958 10204,29994 10141,30011 10165,30073 10210,30100 10276,30092 10276,30065 10276,30038 10276,30011 10528,30083 10546,30191 10330,30336 10321,30322 10312,30309 10303,30295 10351,30250 10360,30200 10330,30146 10306,30169 10297,30196 10303,30228 10199,30225 10127,30175 10087,30079 10032,30065 9978,30052 9925,30038 9925,30011 9925,29984 9925,29957 9847,29927 9766,29900 9682,29876 9658,29854 9649,29827 9655,29795 9759,29781 9862,29763 9965,29741 10000,29744 10022,29762 10033,29795 10001,29821 9965,29829 9925,29822 9919,29854 9928,29881 9952,29903 9998,29873 10016,29892 10006,29957 10038,29963 10065,29954 10087,29930 10012,29887 10017,29860 10100,29849 10157,29874 10215,29892 10276,29903 L 10276,29903 Z "/>
         <path fill="rgb(152,66,70)" stroke="none" d="M 19053,29822 C 19098,29827 19134,29845 19161,29876 19165,29896 19160,29914 19148,29930 19130,29898 19116,29898 19107,29930 19119,29952 19128,29974 19134,29998 19107,30007 19089,30030 19080,30065 19025,30060 19016,30037 19053,29998 18989,29947 18917,29915 18837,29903 18845,29872 18867,29854 18904,29849 18941,29855 18977,29864 19013,29876 19040,29867 19054,29849 19053,29822 L 19053,29822 Z "/>
         <path fill="rgb(162,54,62)" stroke="none" d="M 19431,30282 C 19352,30216 19275,30144 19202,30065 19191,30081 19178,30090 19161,30092 19161,30065 19161,30038 19161,30011 19205,30017 19246,30008 19283,29984 19296,30019 19300,30055 19296,30092 19466,30086 19525,30158 19472,30309 19461,30293 19448,30284 19431,30282 L 19431,30282 Z "/>
         <path fill="rgb(232,195,192)" stroke="none" d="M 19161,29876 C 19221,29879 19275,29897 19323,29930 19419,29981 19500,30054 19566,30146 19611,30165 19656,30182 19701,30201 19670,30226 19670,30248 19701,30268 19676,30276 19658,30289 19647,30309 19620,30309 19593,30309 19566,30309 19574,30199 19556,30186 19512,30268 19527,30278 19536,30292 19539,30309 19486,30354 19450,30345 19431,30282 19448,30284 19461,30293 19472,30309 19525,30158 19466,30086 19296,30092 19300,30055 19296,30019 19283,29984 19246,30008 19205,30017 19161,30011 19161,30038 19161,30065 19161,30092 19137,30076 19110,30067 19080,30065 19089,30030 19107,30007 19134,29998 19128,29974 19119,29952 19107,29930 19116,29898 19130,29898 19148,29930 19160,29914 19165,29896 19161,29876 L 19161,29876 Z "/>
         <path fill="rgb(245,233,229)" stroke="none" d="M 8494,30119 C 8430,30174 8376,30238 8331,30309 8314,30300 8296,30291 8277,30282 8229,30369 8166,30446 8088,30511 8063,30528 8040,30523 8021,30498 8012,30561 7980,30610 7926,30646 7974,30650 8019,30636 8061,30606 8130,30531 8211,30477 8304,30444 8293,30560 8338,30578 8440,30498 8461,30506 8479,30519 8494,30538 8421,30592 8349,30646 8277,30700 8147,30695 8138,30655 8250,30579 8241,30570 8232,30561 8223,30552 8098,30659 7954,30731 7791,30768 7734,30728 7671,30701 7602,30687 7543,30689 7489,30707 7440,30741 7458,30759 7476,30777 7494,30795 7481,30804 7467,30813 7454,30822 7419,30789 7378,30771 7332,30768 7332,30795 7332,30822 7332,30849 7267,30851 7213,30878 7170,30930 6993,30912 6813,30912 6630,30930 6752,30872 6878,30841 7008,30835 7297,30717 7567,30564 7818,30376 7859,30353 7873,30322 7859,30282 7829,30303 7797,30321 7764,30336 7764,30290 7764,30246 7764,30201 7835,30193 7903,30175 7967,30146 7978,30153 7982,30162 7980,30173 7959,30208 7932,30240 7899,30268 7961,30266 8006,30235 8034,30173 8077,30236 8099,30308 8102,30390 8152,30375 8192,30348 8223,30309 8197,30265 8192,30220 8210,30173 8276,30275 8335,30266 8385,30146 8418,30121 8454,30112 8494,30119 L 8494,30119 Z "/>
         <path fill="rgb(137,121,120)" stroke="none" d="M 7980,30173 C 7998,30173 8016,30173 8034,30173 8006,30235 7961,30266 7899,30268 7932,30240 7959,30208 7980,30173 L 7980,30173 Z "/>
         <path fill="rgb(164,93,93)" stroke="none" d="M 21024,30092 C 21053,30113 21058,30140 21038,30173 20938,30295 20826,30376 20700,30417 20749,30305 20830,30233 20943,30201 20932,30134 20959,30098 21024,30092 L 21024,30092 Z "/>
         <path fill="rgb(163,36,40)" stroke="none" d="M 21322,29471 C 21320,29671 21306,29870 21281,30065 21379,30003 21420,29913 21403,29795 21470,29791 21524,29764 21565,29714 21424,30094 21172,30377 20808,30565 20712,30600 20613,30623 20511,30633 20367,30637 20223,30633 20079,30619 20144,30612 20162,30585 20133,30538 20193,30533 20247,30519 20295,30498 20430,30468 20565,30441 20700,30417 20826,30376 20938,30295 21038,30173 21058,30140 21053,30113 21024,30092 21105,30053 21163,29990 21200,29903 21250,29758 21290,29614 21322,29471 L 21322,29471 Z "/>
         <path fill="rgb(143,54,58)" stroke="none" d="M 17298,30282 C 17364,30288 17364,30306 17298,30336 17272,30323 17272,30305 17298,30282 L 17298,30282 Z "/>
         <path fill="rgb(159,38,42)" stroke="none" d="M 10276,29903 C 10454,30027 10625,30162 10789,30309 10880,30372 10979,30422 11086,30457 11276,30473 11465,30464 11653,30430 11788,30356 11932,30306 12085,30282 12017,30332 11949,30386 11883,30444 11516,30548 11156,30539 10803,30417 10683,30473 10642,30446 10681,30336 10589,30340 10580,30308 10654,30241 10625,30209 10589,30195 10546,30201 10546,30228 10546,30255 10546,30282 10519,30282 10492,30282 10465,30282 10469,30370 10496,30451 10546,30525 10508,30519 10472,30505 10438,30484 10270,30329 10099,30181 9925,30038 9978,30052 10032,30065 10087,30079 10127,30175 10199,30225 10303,30228 10297,30196 10306,30169 10330,30146 10360,30200 10351,30250 10303,30295 10312,30309 10321,30322 10330,30336 10546,30191 10528,30083 10276,30011 10276,30038 10276,30065 10276,30092 10210,30100 10165,30073 10141,30011 10204,29994 10249,29958 10276,29903 L 10276,29903 Z "/>
         <path fill="rgb(150,63,68)" stroke="none" d="M 8331,30309 C 8351,30333 8378,30342 8412,30336 8376,30371 8340,30408 8304,30444 8211,30477 8130,30531 8061,30606 8019,30636 7974,30650 7926,30646 7980,30610 8012,30561 8021,30498 8040,30523 8063,30528 8088,30511 8166,30446 8229,30369 8277,30282 8296,30291 8314,30300 8331,30309 L 8331,30309 Z "/>
         <path fill="rgb(249,233,230)" stroke="none" d="M 2579,30363 C 2313,30528 2025,30646 1715,30714 1533,30723 1353,30709 1175,30673 1151,30654 1133,30632 1121,30606 1343,30658 1568,30672 1796,30646 1908,30596 2025,30564 2147,30552 2147,30525 2147,30498 2147,30471 2030,30470 1922,30442 1823,30390 1646,30434 1466,30452 1283,30444 1290,30484 1281,30519 1256,30552 1196,30495 1142,30432 1094,30363 1126,30337 1162,30329 1202,30336 1202,30363 1202,30390 1202,30417 1562,30313 1918,30322 2269,30444 2377,30427 2480,30400 2579,30363 L 2579,30363 Z "/>
         <path fill="rgb(249,224,220)" stroke="none" d="M 14624,30092 C 14680,30096 14721,30123 14746,30173 14754,30165 14764,30155 14773,30146 14783,30171 14796,30194 14813,30214 14901,30317 14986,30321 15070,30228 15102,30256 15115,30292 15110,30336 15073,30331 15037,30336 15002,30349 15096,30397 15195,30433 15299,30457 15525,30465 15750,30478 15974,30498 15974,30507 15974,30516 15974,30525 15684,30536 15396,30518 15110,30471 14920,30384 14758,30258 14624,30092 L 14624,30092 Z "/>
         <path fill="rgb(161,40,44)" stroke="none" d="M 17514,29903 C 17549,29897 17576,29906 17595,29930 17314,30081 17044,30248 16784,30430 16661,30487 16535,30536 16406,30579 16412,30545 16430,30518 16460,30498 16451,30489 16442,30479 16433,30471 16352,30507 16271,30507 16190,30471 16172,30485 16158,30503 16150,30525 16132,30504 16109,30495 16082,30498 16426,30411 16750,30272 17055,30079 17214,30034 17367,29975 17514,29903 L 17514,29903 Z "/>
         <path fill="rgb(169,27,30)" stroke="none" d="M 12517,30444 C 12404,30407 12287,30380 12166,30363 12166,30390 12166,30417 12166,30444 12103,30444 12040,30444 11977,30444 11977,30479 11977,30516 11977,30552 12043,30536 12106,30536 12166,30552 11976,30646 11773,30709 11559,30741 11302,30710 11045,30679 10789,30646 10711,30598 10630,30557 10546,30525 10496,30451 10469,30370 10465,30282 10492,30282 10519,30282 10546,30282 10546,30255 10546,30228 10546,30201 10589,30195 10625,30209 10654,30241 10580,30308 10589,30340 10681,30336 10642,30446 10683,30473 10803,30417 11156,30539 11516,30548 11883,30444 11949,30386 12017,30332 12085,30282 12189,30327 12297,30340 12409,30322 12359,30294 12305,30272 12247,30255 12290,30185 12353,30158 12436,30173 12436,30228 12436,30282 12436,30336 12463,30336 12490,30336 12517,30336 12517,30371 12517,30408 12517,30444 L 12517,30444 Z "/>
         <path fill="rgb(156,45,48)" stroke="none" d="M 2930,30146 C 2885,30214 2827,30268 2755,30309 2741,30343 2737,30380 2741,30417 2815,30414 2887,30423 2957,30444 3002,30423 3038,30391 3065,30349 3091,30336 3118,30331 3146,30336 3146,30309 3146,30282 3146,30255 3173,30255 3200,30255 3227,30255 3170,30343 3098,30420 3011,30484 2813,30565 2624,30659 2444,30768 2442,30741 2451,30718 2471,30700 2563,30662 2648,30613 2728,30552 2741,30517 2745,30481 2741,30444 2686,30439 2632,30444 2579,30457 2399,30538 2219,30619 2039,30700 1931,30714 1823,30718 1715,30714 2025,30646 2313,30528 2579,30363 2697,30290 2814,30218 2930,30146 L 2930,30146 Z "/>
         <path fill="rgb(165,31,35)" stroke="none" d="M 14030,29660 C 14086,29675 14140,29698 14192,29728 14343,29843 14487,29965 14624,30092 14758,30258 14920,30384 15110,30471 15128,30504 15159,30522 15205,30525 15366,30546 15528,30565 15691,30579 15792,30579 15887,30561 15974,30525 15974,30516 15974,30507 15974,30498 16010,30498 16046,30498 16082,30498 16109,30495 16132,30504 16150,30525 16158,30503 16172,30485 16190,30471 16271,30507 16352,30507 16433,30471 16442,30479 16451,30489 16460,30498 16430,30518 16412,30545 16406,30579 16329,30621 16248,30662 16163,30700 16016,30723 15872,30755 15731,30795 15544,30808 15354,30808 15164,30795 14906,30733 14672,30621 14462,30457 14309,30306 14156,30153 14003,29998 13888,29891 13753,29855 13598,29890 13226,30053 12866,30238 12517,30444 12517,30408 12517,30371 12517,30336 12490,30336 12463,30336 12436,30336 12436,30282 12436,30228 12436,30173 12353,30158 12290,30185 12247,30255 12305,30272 12359,30294 12409,30322 12297,30340 12189,30327 12085,30282 12288,30162 12495,30040 12707,29917 12784,29873 12865,29841 12950,29822 13133,29749 13322,29691 13517,29647 13688,29637 13859,29642 14030,29660 L 14030,29660 Z "/>
         <path fill="rgb(144,49,50)" stroke="none" d="M 15110,30471 C 15396,30518 15684,30536 15974,30525 15887,30561 15792,30579 15691,30579 15528,30565 15366,30546 15205,30525 15159,30522 15128,30504 15110,30471 L 15110,30471 Z "/>
         <path fill="rgb(160,59,64)" stroke="none" d="M 19647,30309 C 19663,30326 19681,30344 19701,30363 19848,30389 19987,30434 20120,30498 20178,30465 20237,30465 20295,30498 20247,30519 20193,30533 20133,30538 20162,30585 20144,30612 20079,30619 20223,30633 20367,30637 20511,30633 20308,30669 20101,30664 19890,30619 19788,30553 19802,30539 19931,30579 19959,30575 19982,30562 19998,30538 19881,30493 19764,30448 19647,30403 19598,30385 19562,30354 19539,30309 19536,30292 19527,30278 19512,30268 19556,30186 19574,30199 19566,30309 19593,30309 19620,30309 19647,30309 L 19647,30309 Z "/>
         <path fill="rgb(165,31,37)" stroke="none" d="M 797,29471 C 801,29517 797,29562 783,29606 724,29699 683,29798 662,29903 689,29903 716,29903 743,29903 743,30047 743,30192 743,30336 716,30336 689,30336 662,30336 670,30226 661,30118 635,30011 600,30079 582,30151 581,30228 606,30317 628,30407 648,30498 668,30603 727,30630 824,30579 850,30649 859,30720 851,30795 984,30793 1101,30834 1202,30916 1391,30939 1581,30934 1769,30903 1755,30884 1737,30871 1715,30862 1571,30849 1427,30844 1283,30849 1283,30822 1283,30795 1283,30768 1187,30777 1097,30759 1013,30714 1035,30688 1040,30661 1026,30633 907,30522 858,30382 878,30214 879,30144 897,30085 932,30038 865,30273 928,30462 1121,30606 1133,30632 1151,30654 1175,30673 1353,30709 1533,30723 1715,30714 1823,30718 1931,30714 2039,30700 2219,30619 2399,30538 2579,30457 2632,30444 2686,30439 2741,30444 2745,30481 2741,30517 2728,30552 2648,30613 2563,30662 2471,30700 2451,30718 2442,30741 2444,30768 2213,30877 1970,30949 1715,30984 1535,30988 1355,30984 1175,30970 1080,30923 981,30891 878,30876 869,30876 860,30876 851,30876 604,30686 505,30434 554,30119 575,29879 656,29663 797,29471 L 797,29471 Z "/>
         <path fill="rgb(161,37,41)" stroke="none" d="M 12517,30444 C 12160,30653 11773,30770 11356,30795 11045,30817 10774,30727 10546,30525 10630,30557 10711,30598 10789,30646 11045,30679 11302,30710 11559,30741 11773,30709 11976,30646 12166,30552 12106,30536 12043,30536 11977,30552 11977,30516 11977,30479 11977,30444 12040,30444 12103,30444 12166,30444 12166,30417 12166,30390 12166,30363 12287,30380 12404,30407 12517,30444 L 12517,30444 Z "/>
         <path fill="rgb(247,214,212)" stroke="none" d="M 554,30119 C 505,30434 604,30686 851,30876 826,30897 799,30902 770,30889 715,30835 661,30781 608,30727 592,30678 579,30629 567,30579 549,30615 531,30615 513,30579 512,30421 526,30268 554,30119 L 554,30119 Z "/>
         <path fill="rgb(158,42,46)" stroke="none" d="M 5496,30282 C 5597,30374 5696,30464 5793,30552 5709,30541 5646,30572 5604,30646 5658,30655 5712,30664 5766,30673 5875,30782 6001,30809 6144,30754 6027,30723 5928,30664 5847,30579 5958,30631 6075,30672 6198,30700 6352,30707 6505,30721 6657,30741 7063,30692 7432,30556 7764,30336 7797,30321 7829,30303 7859,30282 7873,30322 7859,30353 7818,30376 7567,30564 7297,30717 7008,30835 6878,30841 6752,30872 6630,30930 6427,30926 6229,30908 6036,30876 5881,30855 5737,30801 5604,30714 5553,30640 5485,30586 5401,30552 5366,30476 5325,30404 5280,30336 5311,30330 5338,30339 5361,30363 5414,30461 5486,30542 5577,30606 5603,30545 5612,30482 5604,30417 5577,30417 5550,30417 5523,30417 5519,30370 5510,30325 5496,30282 L 5496,30282 Z "/>
         <path fill="rgb(173,23,31)" stroke="none" d="M 5793,30552 C 5811,30561 5829,30570 5847,30579 5928,30664 6027,30723 6144,30754 6001,30809 5875,30782 5766,30673 5712,30664 5658,30655 5604,30646 5646,30572 5709,30541 5793,30552 L 5793,30552 Z "/>
         <path fill="rgb(175,23,35)" stroke="none" d="M 6036,30876 C 6098,30833 6170,30811 6252,30808 6396,30790 6540,30790 6684,30808 6672,30819 6663,30833 6657,30849 6451,30876 6244,30885 6036,30876 L 6036,30876 Z "/>
         <path fill="rgb(244,201,198)" stroke="none" d="M 15164,30795 C 15354,30808 15544,30808 15731,30795 15680,30830 15617,30848 15542,30849 15410,30848 15284,30830 15164,30795 L 15164,30795 Z "/>
         <path fill="rgb(145,55,61)" stroke="none" d="M 878,30876 C 981,30891 1080,30923 1175,30970 1355,30984 1535,30988 1715,30984 1531,31015 1342,31019 1148,30997 1052,30964 962,30924 878,30876 L 878,30876 Z "/>
        </g>
        <g clip-path="url(#clip_path_1)"/>
       </g>
      </g>
     </g>
    </g>
   </g>
  </g>
 </g>
</svg>